<mxfile host="app.diagrams.net" modified="2024-07-17T13:31:13.158Z" agent="Mozilla/5.0 (Macintosh; Intel Mac OS X 10_15_7) AppleWebKit/537.36 (KHTML, like Gecko) Chrome/126.0.0.0 Safari/537.36" etag="6qimItmQ9m7guZrKedDX" version="24.6.5" type="device" pages="6">
  <diagram name="global-architecture" id="-FzF7oCASN1p9_hpjd1K">
    <mxGraphModel dx="7251" dy="4369" grid="1" gridSize="10" guides="1" tooltips="1" connect="1" arrows="1" fold="1" page="1" pageScale="1" pageWidth="827" pageHeight="1169" math="0" shadow="0">
      <root>
        <mxCell id="0" />
        <mxCell id="1" parent="0" />
        <mxCell id="AoGBlZ9BfleevNJTa0BR-94" value="" style="rounded=0;whiteSpace=wrap;html=1;" vertex="1" parent="1">
          <mxGeometry x="-1840" y="-770" width="2990" height="2630" as="geometry" />
        </mxCell>
        <mxCell id="AoGBlZ9BfleevNJTa0BR-93" value="" style="rounded=0;whiteSpace=wrap;html=1;fillColor=none;fontColor=#ffffff;strokeColor=#314354;gradientColor=none;" vertex="1" parent="1">
          <mxGeometry x="-1650" y="-670" width="2710" height="2440" as="geometry" />
        </mxCell>
        <mxCell id="AoGBlZ9BfleevNJTa0BR-86" value="" style="rounded=0;whiteSpace=wrap;html=1;" vertex="1" parent="1">
          <mxGeometry x="-1290" y="-381.96" width="1850" height="740" as="geometry" />
        </mxCell>
        <mxCell id="AoGBlZ9BfleevNJTa0BR-81" value="" style="rounded=0;whiteSpace=wrap;html=1;" vertex="1" parent="1">
          <mxGeometry x="-1280" y="560" width="1830" height="820" as="geometry" />
        </mxCell>
        <mxCell id="hlorY4DWMtt_V5rzEchu-88" style="edgeStyle=orthogonalEdgeStyle;rounded=0;orthogonalLoop=1;jettySize=auto;html=1;flowAnimation=1;strokeWidth=2;" parent="1" source="hlorY4DWMtt_V5rzEchu-39" target="hlorY4DWMtt_V5rzEchu-86" edge="1">
          <mxGeometry relative="1" as="geometry" />
        </mxCell>
        <mxCell id="hlorY4DWMtt_V5rzEchu-96" style="edgeStyle=orthogonalEdgeStyle;rounded=0;orthogonalLoop=1;jettySize=auto;html=1;entryX=0.5;entryY=1;entryDx=0;entryDy=0;flowAnimation=1;strokeWidth=2;fillColor=#1ba1e2;strokeColor=#006EAF;" parent="1" source="hlorY4DWMtt_V5rzEchu-39" target="hlorY4DWMtt_V5rzEchu-68" edge="1">
          <mxGeometry relative="1" as="geometry" />
        </mxCell>
        <mxCell id="hlorY4DWMtt_V5rzEchu-39" value="&lt;b&gt;API Gateway&lt;/b&gt;" style="sketch=0;outlineConnect=0;dashed=0;verticalLabelPosition=bottom;verticalAlign=top;align=center;html=1;fontSize=12;fontStyle=0;aspect=fixed;pointerEvents=1;shape=mxgraph.aws4.gateway_load_balancer;labelBackgroundColor=none;labelBorderColor=none;fillColor=#1ba1e2;strokeColor=default;" parent="1" vertex="1">
          <mxGeometry x="-898.97" y="187.65" width="63" height="63" as="geometry" />
        </mxCell>
        <mxCell id="hlorY4DWMtt_V5rzEchu-51" style="edgeStyle=orthogonalEdgeStyle;rounded=0;orthogonalLoop=1;jettySize=auto;html=1;flowAnimation=1;exitX=1;exitY=0.4;exitDx=0;exitDy=0;exitPerimeter=0;strokeWidth=2;" parent="1" source="hlorY4DWMtt_V5rzEchu-81" target="hlorY4DWMtt_V5rzEchu-39" edge="1">
          <mxGeometry relative="1" as="geometry">
            <mxPoint x="-953.8200000000002" y="214.65" as="sourcePoint" />
          </mxGeometry>
        </mxCell>
        <mxCell id="hlorY4DWMtt_V5rzEchu-53" value="Appointment Booking Microservices [Spring boot 3 | Spring Cloud]" style="text;html=1;strokeColor=none;fillColor=none;align=center;verticalAlign=middle;whiteSpace=wrap;rounded=0;fontSize=50;fontStyle=1" parent="1" vertex="1">
          <mxGeometry x="-1050" y="-920" width="1435" height="98" as="geometry" />
        </mxCell>
        <mxCell id="hlorY4DWMtt_V5rzEchu-68" value="" style="shape=image;verticalLabelPosition=bottom;labelBackgroundColor=default;verticalAlign=top;aspect=fixed;imageAspect=0;image=https://devopsi.pl/wp-content/uploads/2021/02/Keycloak-1024x683.png;" parent="1" vertex="1">
          <mxGeometry x="-908.03" y="-39" width="81.06" height="54.08" as="geometry" />
        </mxCell>
        <mxCell id="hlorY4DWMtt_V5rzEchu-81" value="" style="points=[[0.03,0.03,0],[0.5,0,0],[0.97,0.03,0],[1,0.4,0],[0.97,0.745,0],[0.5,1,0],[0.03,0.745,0],[0,0.4,0]];verticalLabelPosition=bottom;sketch=0;html=1;verticalAlign=top;aspect=fixed;align=center;pointerEvents=1;shape=mxgraph.cisco19.workstation;fillColor=#005073;strokeColor=none;" parent="1" vertex="1">
          <mxGeometry x="-1225" y="198.32" width="60" height="48" as="geometry" />
        </mxCell>
        <mxCell id="hlorY4DWMtt_V5rzEchu-84" value="Client" style="edgeLabel;html=1;align=center;verticalAlign=middle;resizable=0;points=[];fontSize=15;" parent="1" vertex="1" connectable="0">
          <mxGeometry x="-1115.0024369076568" y="267.6729012411336" as="geometry">
            <mxPoint x="-82" y="-4" as="offset" />
          </mxGeometry>
        </mxCell>
        <mxCell id="hlorY4DWMtt_V5rzEchu-85" value="Booking Container App" style="image;aspect=fixed;html=1;points=[];align=center;fontSize=12;image=img/lib/azure2/other/Worker_Container_App.svg;" parent="1" vertex="1">
          <mxGeometry x="-430" y="200" width="68" height="66" as="geometry" />
        </mxCell>
        <mxCell id="hlorY4DWMtt_V5rzEchu-91" style="edgeStyle=orthogonalEdgeStyle;rounded=0;orthogonalLoop=1;jettySize=auto;html=1;entryX=-0.074;entryY=0.509;entryDx=0;entryDy=0;entryPerimeter=0;flowAnimation=1;strokeWidth=2;fillColor=#6a00ff;strokeColor=#3700CC;" parent="1" source="hlorY4DWMtt_V5rzEchu-86" target="hlorY4DWMtt_V5rzEchu-87" edge="1">
          <mxGeometry relative="1" as="geometry">
            <mxPoint x="-634.97" y="-90" as="targetPoint" />
            <Array as="points">
              <mxPoint x="-635" y="-174" />
            </Array>
          </mxGeometry>
        </mxCell>
        <mxCell id="hlorY4DWMtt_V5rzEchu-86" value="Gateway Container App" style="image;aspect=fixed;html=1;points=[];align=center;fontSize=12;image=img/lib/azure2/other/Worker_Container_App.svg;" parent="1" vertex="1">
          <mxGeometry x="-668.97" y="187.65" width="68" height="66" as="geometry" />
        </mxCell>
        <mxCell id="hlorY4DWMtt_V5rzEchu-87" value="Container App Environments" style="image;aspect=fixed;html=1;points=[];align=center;fontSize=12;image=img/lib/azure2/other/Container_App_Environments.svg;" parent="1" vertex="1">
          <mxGeometry x="-430" y="-209" width="68" height="68" as="geometry" />
        </mxCell>
        <mxCell id="hlorY4DWMtt_V5rzEchu-90" style="edgeStyle=orthogonalEdgeStyle;rounded=0;orthogonalLoop=1;jettySize=auto;html=1;flowAnimation=1;fillColor=#6a00ff;strokeColor=#3700CC;strokeWidth=2;" parent="1" source="hlorY4DWMtt_V5rzEchu-85" edge="1">
          <mxGeometry relative="1" as="geometry">
            <mxPoint x="-396" y="-110" as="targetPoint" />
          </mxGeometry>
        </mxCell>
        <mxCell id="hlorY4DWMtt_V5rzEchu-92" value="Notifications Container App" style="image;aspect=fixed;html=1;points=[];align=center;fontSize=12;image=img/lib/azure2/other/Worker_Container_App.svg;" parent="1" vertex="1">
          <mxGeometry x="-180" y="204.65" width="68" height="66" as="geometry" />
        </mxCell>
        <mxCell id="hlorY4DWMtt_V5rzEchu-95" style="edgeStyle=orthogonalEdgeStyle;rounded=0;orthogonalLoop=1;jettySize=auto;html=1;flowAnimation=1;strokeWidth=2;fillColor=#6a00ff;strokeColor=#3700CC;" parent="1" source="hlorY4DWMtt_V5rzEchu-93" target="hlorY4DWMtt_V5rzEchu-87" edge="1">
          <mxGeometry relative="1" as="geometry" />
        </mxCell>
        <mxCell id="hlorY4DWMtt_V5rzEchu-93" value="Keycloak Container App" style="image;aspect=fixed;html=1;points=[];align=center;fontSize=12;image=img/lib/azure2/other/Worker_Container_App.svg;" parent="1" vertex="1">
          <mxGeometry x="-898.97" y="-340" width="68" height="66" as="geometry" />
        </mxCell>
        <mxCell id="hlorY4DWMtt_V5rzEchu-94" style="edgeStyle=orthogonalEdgeStyle;rounded=0;orthogonalLoop=1;jettySize=auto;html=1;flowAnimation=1;strokeWidth=2;strokeColor=default;fillColor=#6a00ff;" parent="1" source="hlorY4DWMtt_V5rzEchu-68" edge="1">
          <mxGeometry relative="1" as="geometry">
            <mxPoint x="-869" y="-250" as="targetPoint" />
          </mxGeometry>
        </mxCell>
        <mxCell id="hlorY4DWMtt_V5rzEchu-100" value="RG1" style="image;sketch=0;aspect=fixed;html=1;points=[];align=center;fontSize=12;image=img/lib/mscae/ResourceGroup.svg;" parent="1" vertex="1">
          <mxGeometry x="-1590" y="-640" width="137.5" height="110" as="geometry" />
        </mxCell>
        <mxCell id="hlorY4DWMtt_V5rzEchu-101" value="MoSubscription" style="image;aspect=fixed;html=1;points=[];align=center;fontSize=12;image=img/lib/azure2/general/Subscriptions.svg;" parent="1" vertex="1">
          <mxGeometry x="-1800" y="-740" width="80" height="129.08" as="geometry" />
        </mxCell>
        <mxCell id="hlorY4DWMtt_V5rzEchu-103" value="" style="verticalLabelPosition=bottom;html=1;verticalAlign=top;align=center;strokeColor=none;fillColor=#00BEF2;shape=mxgraph.azure.mysql_database;" parent="1" vertex="1">
          <mxGeometry x="-700" y="680" width="22.02" height="30" as="geometry" />
        </mxCell>
        <mxCell id="AoGBlZ9BfleevNJTa0BR-11" style="rounded=0;orthogonalLoop=1;jettySize=auto;html=1;flowAnimation=1;strokeWidth=2;fillColor=#60a917;strokeColor=#2D7600;" edge="1" parent="1" source="hlorY4DWMtt_V5rzEchu-106">
          <mxGeometry relative="1" as="geometry">
            <mxPoint x="-450" y="510" as="targetPoint" />
            <Array as="points">
              <mxPoint x="-644" y="510" />
            </Array>
          </mxGeometry>
        </mxCell>
        <mxCell id="hlorY4DWMtt_V5rzEchu-106" value="Booking Application" style="shape=image;verticalLabelPosition=bottom;labelBackgroundColor=default;verticalAlign=top;aspect=fixed;imageAspect=0;image=https://images.ctfassets.net/gt6dp23g0g38/5DqlQtFKecFlkqQ8YGDT2p/aa945b648f44dd872e9a1b89f7d203ef/springboot.png;" parent="1" vertex="1">
          <mxGeometry x="-674.2" y="654.0300000000001" width="60.44" height="54.29" as="geometry" />
        </mxCell>
        <mxCell id="hlorY4DWMtt_V5rzEchu-108" value="" style="sketch=0;aspect=fixed;html=1;points=[];align=center;image;fontSize=12;image=img/lib/mscae/Docker.svg;fillColor=none;container=0;" parent="1" vertex="1">
          <mxGeometry x="-617.98" y="689.0296934865901" width="25.571745633503813" height="20.968831419473126" as="geometry" />
        </mxCell>
        <mxCell id="AoGBlZ9BfleevNJTa0BR-1" value="Gateway Application" style="shape=image;verticalLabelPosition=bottom;labelBackgroundColor=default;verticalAlign=top;aspect=fixed;imageAspect=0;image=https://images.ctfassets.net/gt6dp23g0g38/5DqlQtFKecFlkqQ8YGDT2p/aa945b648f44dd872e9a1b89f7d203ef/springboot.png;" vertex="1" parent="1">
          <mxGeometry x="-940" y="654.0300000000001" width="60.44" height="54.29" as="geometry" />
        </mxCell>
        <mxCell id="AoGBlZ9BfleevNJTa0BR-2" value="" style="sketch=0;aspect=fixed;html=1;points=[];align=center;image;fontSize=12;image=img/lib/mscae/Docker.svg;fillColor=none;container=0;" vertex="1" parent="1">
          <mxGeometry x="-880.29" y="689.0296934865901" width="25.571745633503813" height="20.968831419473126" as="geometry" />
        </mxCell>
        <mxCell id="AoGBlZ9BfleevNJTa0BR-3" value="Notifications Application" style="shape=image;verticalLabelPosition=bottom;labelBackgroundColor=default;verticalAlign=top;aspect=fixed;imageAspect=0;image=https://images.ctfassets.net/gt6dp23g0g38/5DqlQtFKecFlkqQ8YGDT2p/aa945b648f44dd872e9a1b89f7d203ef/springboot.png;" vertex="1" parent="1">
          <mxGeometry x="265.03999999999996" y="658.06" width="60.44" height="54.29" as="geometry" />
        </mxCell>
        <mxCell id="AoGBlZ9BfleevNJTa0BR-4" value="" style="sketch=0;aspect=fixed;html=1;points=[];align=center;image;fontSize=12;image=img/lib/mscae/Docker.svg;fillColor=none;container=0;" vertex="1" parent="1">
          <mxGeometry x="321.26" y="693.05969348659" width="25.571745633503813" height="20.968831419473126" as="geometry" />
        </mxCell>
        <mxCell id="AoGBlZ9BfleevNJTa0BR-5" value="Docker Hub Container Registry" style="image;aspect=fixed;html=1;points=[];align=center;fontSize=12;image=img/lib/azure2/containers/Container_Registries.svg;" vertex="1" parent="1">
          <mxGeometry x="-433.78" y="449.77" width="68" height="61" as="geometry" />
        </mxCell>
        <mxCell id="AoGBlZ9BfleevNJTa0BR-6" style="edgeStyle=orthogonalEdgeStyle;rounded=0;orthogonalLoop=1;jettySize=auto;html=1;flowAnimation=1;strokeWidth=2;fillColor=#0050ef;strokeColor=#001DBC;" edge="1" parent="1">
          <mxGeometry relative="1" as="geometry">
            <mxPoint x="-400" y="440" as="sourcePoint" />
            <mxPoint x="-400" y="290" as="targetPoint" />
          </mxGeometry>
        </mxCell>
        <mxCell id="AoGBlZ9BfleevNJTa0BR-7" value="" style="endArrow=classic;html=1;rounded=0;flowAnimation=1;strokeWidth=2;fillColor=#0050ef;strokeColor=#001DBC;" edge="1" parent="1" source="AoGBlZ9BfleevNJTa0BR-5">
          <mxGeometry width="50" height="50" relative="1" as="geometry">
            <mxPoint x="-310" y="470" as="sourcePoint" />
            <mxPoint x="-635" y="280" as="targetPoint" />
            <Array as="points">
              <mxPoint x="-635" y="480" />
            </Array>
          </mxGeometry>
        </mxCell>
        <mxCell id="AoGBlZ9BfleevNJTa0BR-8" value="" style="endArrow=classic;html=1;rounded=0;exitX=1.045;exitY=0.512;exitDx=0;exitDy=0;exitPerimeter=0;flowAnimation=1;strokeWidth=2;fillColor=#0050ef;strokeColor=#001DBC;" edge="1" parent="1" source="AoGBlZ9BfleevNJTa0BR-5">
          <mxGeometry width="50" height="50" relative="1" as="geometry">
            <mxPoint x="-425" y="457" as="sourcePoint" />
            <mxPoint x="-140" y="290" as="targetPoint" />
            <Array as="points">
              <mxPoint x="-140" y="481" />
            </Array>
          </mxGeometry>
        </mxCell>
        <mxCell id="AoGBlZ9BfleevNJTa0BR-10" value="" style="endArrow=classic;html=1;rounded=0;flowAnimation=1;strokeWidth=2;fillColor=#60a917;strokeColor=#2D7600;entryX=-0.132;entryY=0.799;entryDx=0;entryDy=0;entryPerimeter=0;" edge="1" parent="1" target="AoGBlZ9BfleevNJTa0BR-5">
          <mxGeometry width="50" height="50" relative="1" as="geometry">
            <mxPoint x="-910" y="650" as="sourcePoint" />
            <mxPoint x="-410" y="540" as="targetPoint" />
            <Array as="points">
              <mxPoint x="-910" y="499" />
            </Array>
          </mxGeometry>
        </mxCell>
        <mxCell id="AoGBlZ9BfleevNJTa0BR-12" value="" style="endArrow=classic;html=1;rounded=0;flowAnimation=1;fillColor=#60a917;strokeColor=#2D7600;strokeWidth=2;exitX=0.5;exitY=0;exitDx=0;exitDy=0;" edge="1" parent="1" source="AoGBlZ9BfleevNJTa0BR-3">
          <mxGeometry width="50" height="50" relative="1" as="geometry">
            <mxPoint x="-20" y="650" as="sourcePoint" />
            <mxPoint x="-360" y="500" as="targetPoint" />
            <Array as="points">
              <mxPoint x="295" y="500" />
              <mxPoint x="-20" y="500" />
            </Array>
          </mxGeometry>
        </mxCell>
        <mxCell id="AoGBlZ9BfleevNJTa0BR-15" style="edgeStyle=orthogonalEdgeStyle;rounded=0;orthogonalLoop=1;jettySize=auto;html=1;entryX=0.963;entryY=0.571;entryDx=0;entryDy=0;entryPerimeter=0;flowAnimation=1;strokeWidth=2;fillColor=#6a00ff;strokeColor=#3700CC;" edge="1" parent="1" source="hlorY4DWMtt_V5rzEchu-92" target="hlorY4DWMtt_V5rzEchu-87">
          <mxGeometry relative="1" as="geometry">
            <Array as="points">
              <mxPoint x="-146" y="-170" />
            </Array>
          </mxGeometry>
        </mxCell>
        <mxCell id="AoGBlZ9BfleevNJTa0BR-21" style="edgeStyle=orthogonalEdgeStyle;rounded=0;orthogonalLoop=1;jettySize=auto;html=1;entryX=0;entryY=0.5;entryDx=0;entryDy=0;" edge="1" parent="1" source="AoGBlZ9BfleevNJTa0BR-20" target="hlorY4DWMtt_V5rzEchu-68">
          <mxGeometry relative="1" as="geometry" />
        </mxCell>
        <mxCell id="AoGBlZ9BfleevNJTa0BR-20" value="Keycloak Database" style="verticalLabelPosition=bottom;html=1;verticalAlign=top;align=center;strokeColor=none;fillColor=#00BEF2;shape=mxgraph.azure.mysql_database;" vertex="1" parent="1">
          <mxGeometry x="-1040" y="-40" width="40" height="57.08" as="geometry" />
        </mxCell>
        <mxCell id="AoGBlZ9BfleevNJTa0BR-25" value="Invoice" style="rounded=1;whiteSpace=wrap;html=1;" vertex="1" parent="1">
          <mxGeometry x="-908.0300000000001" y="1029.63" width="120" height="39" as="geometry" />
        </mxCell>
        <mxCell id="AoGBlZ9BfleevNJTa0BR-35" value="Customer" style="rounded=1;whiteSpace=wrap;html=1;" vertex="1" parent="1">
          <mxGeometry x="-710" y="1029.63" width="120" height="39" as="geometry" />
        </mxCell>
        <mxCell id="AoGBlZ9BfleevNJTa0BR-37" value="Order" style="rounded=1;whiteSpace=wrap;html=1;" vertex="1" parent="1">
          <mxGeometry x="-294.78" y="1030" width="120" height="39" as="geometry" />
        </mxCell>
        <mxCell id="AoGBlZ9BfleevNJTa0BR-39" value="Event" style="rounded=1;whiteSpace=wrap;html=1;" vertex="1" parent="1">
          <mxGeometry x="-522.02" y="1029.13" width="120" height="39" as="geometry" />
        </mxCell>
        <mxCell id="AoGBlZ9BfleevNJTa0BR-40" value="REST API" style="text;html=1;align=center;verticalAlign=middle;whiteSpace=wrap;rounded=0;" vertex="1" parent="1">
          <mxGeometry x="-635.19" y="840" width="60" height="30" as="geometry" />
        </mxCell>
        <mxCell id="AoGBlZ9BfleevNJTa0BR-41" value="" style="shape=image;verticalLabelPosition=bottom;labelBackgroundColor=default;verticalAlign=top;aspect=fixed;imageAspect=0;image=https://static-00.iconduck.com/assets.00/kafka-icon-2048x935-cvu4503l.png;imageBorder=none;perimeterSpacing=0;" vertex="1" parent="1">
          <mxGeometry x="37.039999999999964" y="1179.13" width="77.75" height="35.5" as="geometry" />
        </mxCell>
        <mxCell id="AoGBlZ9BfleevNJTa0BR-42" value="Message Broker" style="shape=cylinder3;whiteSpace=wrap;html=1;boundedLbl=1;backgroundOutline=1;size=15;rotation=90;horizontal=0;verticalAlign=top;" vertex="1" parent="1">
          <mxGeometry x="64.03999999999996" y="1179.63" width="59" height="139" as="geometry" />
        </mxCell>
        <mxCell id="AoGBlZ9BfleevNJTa0BR-43" value="" style="shape=message;html=1;html=1;outlineConnect=0;labelPosition=center;verticalLabelPosition=bottom;align=center;verticalAlign=top;container=0;" vertex="1" parent="1">
          <mxGeometry x="46.039999999999964" y="1249.13" width="23" height="13.5" as="geometry" />
        </mxCell>
        <mxCell id="AoGBlZ9BfleevNJTa0BR-44" value="" style="shape=message;html=1;html=1;outlineConnect=0;labelPosition=center;verticalLabelPosition=bottom;align=center;verticalAlign=top;container=0;" vertex="1" parent="1">
          <mxGeometry x="72.03999999999999" y="1249.13" width="23" height="13.5" as="geometry" />
        </mxCell>
        <mxCell id="AoGBlZ9BfleevNJTa0BR-45" value="" style="shape=message;html=1;html=1;outlineConnect=0;labelPosition=center;verticalLabelPosition=bottom;align=center;verticalAlign=top;container=0;" vertex="1" parent="1">
          <mxGeometry x="99.03999999999999" y="1249.13" width="23" height="13.5" as="geometry" />
        </mxCell>
        <mxCell id="AoGBlZ9BfleevNJTa0BR-47" value="Async&lt;br&gt;Send Order Confirmation" style="text;html=1;align=center;verticalAlign=middle;resizable=0;points=[];autosize=1;strokeColor=none;fillColor=none;" vertex="1" parent="1">
          <mxGeometry x="-204.51999999999998" y="1200.13" width="160" height="40" as="geometry" />
        </mxCell>
        <mxCell id="AoGBlZ9BfleevNJTa0BR-50" value="" style="verticalLabelPosition=bottom;html=1;verticalAlign=top;align=center;strokeColor=none;fillColor=#00BEF2;shape=mxgraph.azure.mysql_database;" vertex="1" parent="1">
          <mxGeometry x="229.99999999999997" y="681.05" width="26.97" height="34.66" as="geometry" />
        </mxCell>
        <mxCell id="AoGBlZ9BfleevNJTa0BR-54" style="rounded=0;orthogonalLoop=1;jettySize=auto;html=1;exitX=0.5;exitY=0;exitDx=0;exitDy=0;flowAnimation=1;strokeWidth=2;fillColor=#008a00;strokeColor=#005700;" edge="1" parent="1" source="AoGBlZ9BfleevNJTa0BR-51">
          <mxGeometry relative="1" as="geometry">
            <mxPoint x="-360" y="510" as="targetPoint" />
            <Array as="points">
              <mxPoint x="-235" y="510" />
            </Array>
          </mxGeometry>
        </mxCell>
        <mxCell id="AoGBlZ9BfleevNJTa0BR-51" value="Order Application" style="shape=image;verticalLabelPosition=bottom;labelBackgroundColor=default;verticalAlign=top;aspect=fixed;imageAspect=0;image=https://images.ctfassets.net/gt6dp23g0g38/5DqlQtFKecFlkqQ8YGDT2p/aa945b648f44dd872e9a1b89f7d203ef/springboot.png;" vertex="1" parent="1">
          <mxGeometry x="-264.96000000000004" y="654.03" width="60.44" height="54.29" as="geometry" />
        </mxCell>
        <mxCell id="AoGBlZ9BfleevNJTa0BR-52" value="" style="sketch=0;aspect=fixed;html=1;points=[];align=center;image;fontSize=12;image=img/lib/mscae/Docker.svg;fillColor=none;container=0;" vertex="1" parent="1">
          <mxGeometry x="-208.74" y="689.0296934865901" width="25.571745633503813" height="20.968831419473126" as="geometry" />
        </mxCell>
        <mxCell id="AoGBlZ9BfleevNJTa0BR-53" value="" style="verticalLabelPosition=bottom;html=1;verticalAlign=top;align=center;strokeColor=none;fillColor=#00BEF2;shape=mxgraph.azure.mysql_database;" vertex="1" parent="1">
          <mxGeometry x="-300.00000000000006" y="677.02" width="26.97" height="34.66" as="geometry" />
        </mxCell>
        <mxCell id="AoGBlZ9BfleevNJTa0BR-55" value="" style="html=1;verticalLabelPosition=bottom;align=center;labelBackgroundColor=#ffffff;verticalAlign=top;strokeWidth=2;strokeColor=#E3C000;shadow=0;dashed=0;shape=mxgraph.ios7.icons.locked;fillColor=#e3c800;fontColor=#000000;" vertex="1" parent="1">
          <mxGeometry x="-697.26" y="650" width="16.53" height="20" as="geometry" />
        </mxCell>
        <mxCell id="AoGBlZ9BfleevNJTa0BR-56" value="" style="html=1;verticalLabelPosition=bottom;align=center;labelBackgroundColor=#ffffff;verticalAlign=top;strokeWidth=2;strokeColor=#E3C000;shadow=0;dashed=0;shape=mxgraph.ios7.icons.locked;fillColor=#e3c800;fontColor=#000000;" vertex="1" parent="1">
          <mxGeometry x="-294.78" y="650" width="16.53" height="20" as="geometry" />
        </mxCell>
        <mxCell id="AoGBlZ9BfleevNJTa0BR-57" value="" style="html=1;verticalLabelPosition=bottom;align=center;labelBackgroundColor=#ffffff;verticalAlign=top;strokeWidth=2;strokeColor=#E3C000;shadow=0;dashed=0;shape=mxgraph.ios7.icons.locked;fillColor=#e3c800;fontColor=#000000;" vertex="1" parent="1">
          <mxGeometry x="235.22000000000003" y="654.03" width="16.53" height="20" as="geometry" />
        </mxCell>
        <mxCell id="AoGBlZ9BfleevNJTa0BR-58" value="" style="endArrow=none;html=1;rounded=0;exitX=0.5;exitY=0;exitDx=0;exitDy=0;strokeWidth=2;fillColor=#008a00;strokeColor=#005700;flowAnimation=1;" edge="1" parent="1" source="AoGBlZ9BfleevNJTa0BR-37">
          <mxGeometry width="50" height="50" relative="1" as="geometry">
            <mxPoint x="-234.94" y="820.1300000000001" as="sourcePoint" />
            <mxPoint x="-234.94" y="730" as="targetPoint" />
          </mxGeometry>
        </mxCell>
        <mxCell id="AoGBlZ9BfleevNJTa0BR-59" style="edgeStyle=orthogonalEdgeStyle;rounded=0;orthogonalLoop=1;jettySize=auto;html=1;entryX=0.5;entryY=1;entryDx=0;entryDy=0;entryPerimeter=0;fillColor=#008a00;strokeColor=#005700;flowAnimation=1;strokeWidth=2;" edge="1" parent="1" source="AoGBlZ9BfleevNJTa0BR-37" target="AoGBlZ9BfleevNJTa0BR-42">
          <mxGeometry relative="1" as="geometry">
            <Array as="points">
              <mxPoint x="-235" y="1249" />
            </Array>
          </mxGeometry>
        </mxCell>
        <mxCell id="AoGBlZ9BfleevNJTa0BR-69" style="edgeStyle=orthogonalEdgeStyle;rounded=0;orthogonalLoop=1;jettySize=auto;html=1;entryX=0.5;entryY=0;entryDx=0;entryDy=0;entryPerimeter=0;strokeWidth=2;fillColor=#008a00;strokeColor=#005700;flowAnimation=1;" edge="1" parent="1" target="AoGBlZ9BfleevNJTa0BR-42">
          <mxGeometry relative="1" as="geometry">
            <mxPoint x="295" y="730" as="sourcePoint" />
            <Array as="points">
              <mxPoint x="295" y="1249" />
            </Array>
          </mxGeometry>
        </mxCell>
        <mxCell id="AoGBlZ9BfleevNJTa0BR-71" value="" style="shape=message;html=1;html=1;outlineConnect=0;labelPosition=center;verticalLabelPosition=bottom;align=center;verticalAlign=top;" vertex="1" parent="1">
          <mxGeometry x="325.48" y="658.06" width="26" height="16" as="geometry" />
        </mxCell>
        <mxCell id="AoGBlZ9BfleevNJTa0BR-76" value="" style="endArrow=classic;html=1;rounded=0;entryX=0.5;entryY=0;entryDx=0;entryDy=0;strokeWidth=2;fillColor=#d80073;strokeColor=#A50040;flowAnimation=1;" edge="1" parent="1" target="AoGBlZ9BfleevNJTa0BR-25">
          <mxGeometry width="50" height="50" relative="1" as="geometry">
            <mxPoint x="-650" y="730" as="sourcePoint" />
            <mxPoint x="-590" y="900" as="targetPoint" />
            <Array as="points">
              <mxPoint x="-650" y="960" />
              <mxPoint x="-848" y="960" />
            </Array>
          </mxGeometry>
        </mxCell>
        <mxCell id="AoGBlZ9BfleevNJTa0BR-77" value="" style="endArrow=classic;html=1;rounded=0;strokeWidth=2;fillColor=#d80073;strokeColor=#A50040;flowAnimation=1;" edge="1" parent="1" target="AoGBlZ9BfleevNJTa0BR-35">
          <mxGeometry width="50" height="50" relative="1" as="geometry">
            <mxPoint x="-650" y="960" as="sourcePoint" />
            <mxPoint x="-590" y="950" as="targetPoint" />
          </mxGeometry>
        </mxCell>
        <mxCell id="AoGBlZ9BfleevNJTa0BR-78" value="" style="endArrow=classic;html=1;rounded=0;entryX=0.5;entryY=0;entryDx=0;entryDy=0;strokeWidth=2;fillColor=#d80073;strokeColor=#A50040;flowAnimation=1;" edge="1" parent="1" target="AoGBlZ9BfleevNJTa0BR-39">
          <mxGeometry width="50" height="50" relative="1" as="geometry">
            <mxPoint x="-650" y="960" as="sourcePoint" />
            <mxPoint x="-590" y="950" as="targetPoint" />
            <Array as="points">
              <mxPoint x="-462" y="960" />
            </Array>
          </mxGeometry>
        </mxCell>
        <mxCell id="AoGBlZ9BfleevNJTa0BR-79" value="REST API" style="text;html=1;align=center;verticalAlign=middle;whiteSpace=wrap;rounded=0;" vertex="1" parent="1">
          <mxGeometry x="-220.00000000000006" y="840" width="60" height="30" as="geometry" />
        </mxCell>
        <mxCell id="AoGBlZ9BfleevNJTa0BR-80" value="Async&lt;br&gt;Send Notifications Confirmation" style="text;html=1;align=center;verticalAlign=middle;resizable=0;points=[];autosize=1;strokeColor=none;fillColor=none;" vertex="1" parent="1">
          <mxGeometry x="300" y="880.0000000000001" width="190" height="40" as="geometry" />
        </mxCell>
        <mxCell id="AoGBlZ9BfleevNJTa0BR-60" value="" style="rounded=0;whiteSpace=wrap;html=1;fillColor=default;strokeWidth=2;" vertex="1" parent="1">
          <mxGeometry x="-1280" y="1472.14" width="1830" height="170" as="geometry" />
        </mxCell>
        <mxCell id="AoGBlZ9BfleevNJTa0BR-62" value="" style="sketch=0;aspect=fixed;pointerEvents=1;shadow=0;dashed=0;html=1;strokeColor=none;labelPosition=center;verticalLabelPosition=bottom;verticalAlign=top;align=center;fillColor=#00188D;shape=mxgraph.azure.code_file" vertex="1" parent="1">
          <mxGeometry x="64.03999999999999" y="1530" width="21.24" height="22.59" as="geometry" />
        </mxCell>
        <mxCell id="AoGBlZ9BfleevNJTa0BR-63" style="edgeStyle=orthogonalEdgeStyle;rounded=0;orthogonalLoop=1;jettySize=auto;html=1;flowAnimation=1;entryX=1;entryY=0.5;entryDx=0;entryDy=0;exitX=0;exitY=0.5;exitDx=0;exitDy=0;strokeWidth=2;" edge="1" parent="1" source="AoGBlZ9BfleevNJTa0BR-83" target="AoGBlZ9BfleevNJTa0BR-82">
          <mxGeometry relative="1" as="geometry">
            <mxPoint x="-46" y="1572.6" as="sourcePoint" />
            <mxPoint x="-493" y="1572.63" as="targetPoint" />
          </mxGeometry>
        </mxCell>
        <mxCell id="AoGBlZ9BfleevNJTa0BR-68" value="Development Environment" style="text;html=1;align=center;verticalAlign=middle;resizable=0;points=[];autosize=1;strokeColor=none;fillColor=none;fontStyle=1" vertex="1" parent="1">
          <mxGeometry x="-1260" y="1490" width="160" height="30" as="geometry" />
        </mxCell>
        <mxCell id="AoGBlZ9BfleevNJTa0BR-82" value="Eureka Server" style="shape=image;verticalLabelPosition=bottom;labelBackgroundColor=default;verticalAlign=top;aspect=fixed;imageAspect=0;image=https://images.ctfassets.net/gt6dp23g0g38/5DqlQtFKecFlkqQ8YGDT2p/aa945b648f44dd872e9a1b89f7d203ef/springboot.png;" vertex="1" parent="1">
          <mxGeometry x="-780" y="1530.0000000000002" width="60.44" height="54.29" as="geometry" />
        </mxCell>
        <mxCell id="AoGBlZ9BfleevNJTa0BR-83" value="Config Server" style="shape=image;verticalLabelPosition=bottom;labelBackgroundColor=default;verticalAlign=top;aspect=fixed;imageAspect=0;image=https://images.ctfassets.net/gt6dp23g0g38/5DqlQtFKecFlkqQ8YGDT2p/aa945b648f44dd872e9a1b89f7d203ef/springboot.png;" vertex="1" parent="1">
          <mxGeometry x="0.8000000000000114" y="1530.0000000000002" width="60.44" height="54.29" as="geometry" />
        </mxCell>
        <mxCell id="AoGBlZ9BfleevNJTa0BR-85" value="Development Environment" style="text;html=1;align=center;verticalAlign=middle;resizable=0;points=[];autosize=1;strokeColor=none;fillColor=none;fontStyle=1" vertex="1" parent="1">
          <mxGeometry x="-1250" y="580" width="160" height="30" as="geometry" />
        </mxCell>
        <mxCell id="AoGBlZ9BfleevNJTa0BR-87" value="Production Environment" style="text;html=1;align=center;verticalAlign=middle;resizable=0;points=[];autosize=1;strokeColor=none;fillColor=none;fontStyle=1" vertex="1" parent="1">
          <mxGeometry x="-1235" y="-370" width="150" height="30" as="geometry" />
        </mxCell>
        <mxCell id="AoGBlZ9BfleevNJTa0BR-89" value="" style="group;strokeWidth=2;glass=0;shadow=0;" vertex="1" connectable="0" parent="1">
          <mxGeometry x="827" y="909.9999999999998" width="155" height="169.50000000000023" as="geometry" />
        </mxCell>
        <mxCell id="AoGBlZ9BfleevNJTa0BR-92" style="edgeStyle=orthogonalEdgeStyle;rounded=0;orthogonalLoop=1;jettySize=auto;html=1;flowAnimation=1;strokeWidth=3;fillColor=#e3c800;strokeColor=#B09500;" edge="1" parent="AoGBlZ9BfleevNJTa0BR-89" source="AoGBlZ9BfleevNJTa0BR-72">
          <mxGeometry relative="1" as="geometry">
            <mxPoint x="-260" y="59.50000000000023" as="targetPoint" />
          </mxGeometry>
        </mxCell>
        <mxCell id="AoGBlZ9BfleevNJTa0BR-72" value="" style="shape=cylinder3;whiteSpace=wrap;html=1;boundedLbl=1;backgroundOutline=1;size=15;" vertex="1" parent="AoGBlZ9BfleevNJTa0BR-89">
          <mxGeometry x="17" width="121" height="119" as="geometry" />
        </mxCell>
        <mxCell id="AoGBlZ9BfleevNJTa0BR-73" value="" style="shape=image;verticalLabelPosition=bottom;labelBackgroundColor=default;verticalAlign=top;aspect=fixed;imageAspect=0;image=https://avatars.githubusercontent.com/u/11860887?s=280&amp;v=4;" vertex="1" parent="AoGBlZ9BfleevNJTa0BR-89">
          <mxGeometry x="46" y="42" width="63" height="63" as="geometry" />
        </mxCell>
        <mxCell id="AoGBlZ9BfleevNJTa0BR-88" value="" style="edgeStyle=orthogonalEdgeStyle;rounded=0;orthogonalLoop=1;jettySize=auto;html=1;" edge="1" parent="AoGBlZ9BfleevNJTa0BR-89" source="AoGBlZ9BfleevNJTa0BR-74" target="AoGBlZ9BfleevNJTa0BR-73">
          <mxGeometry relative="1" as="geometry" />
        </mxCell>
        <mxCell id="AoGBlZ9BfleevNJTa0BR-74" value="Distributed Tracing" style="text;html=1;align=center;verticalAlign=middle;resizable=0;points=[];autosize=1;strokeColor=none;fillColor=none;fontStyle=1;fontSize=15;" vertex="1" parent="AoGBlZ9BfleevNJTa0BR-89">
          <mxGeometry y="139.50000000000023" width="155" height="30" as="geometry" />
        </mxCell>
      </root>
    </mxGraphModel>
  </diagram>
  <diagram name="class-diagram" id="4rimyfMI6Ypl_DrFor7U">
    <mxGraphModel dx="1497" dy="943" grid="0" gridSize="10" guides="0" tooltips="1" connect="0" arrows="0" fold="1" page="0" pageScale="1" pageWidth="1169" pageHeight="827" math="0" shadow="0">
      <root>
        <mxCell id="0" />
        <mxCell id="1" parent="0" />
        <mxCell id="nPPL16FtD3WXAmP0PZX--12" style="edgeStyle=orthogonalEdgeStyle;rounded=0;orthogonalLoop=1;jettySize=auto;html=1;entryX=0.5;entryY=0;entryDx=0;entryDy=0;endArrow=ERmany;endFill=0;startArrow=ERmandOne;startFill=0;" parent="1" source="WRttjeE3I7V11c35sN3d-1" target="WRttjeE3I7V11c35sN3d-10" edge="1">
          <mxGeometry relative="1" as="geometry" />
        </mxCell>
        <mxCell id="WRttjeE3I7V11c35sN3d-1" value="Customer" style="swimlane;fontStyle=0;childLayout=stackLayout;horizontal=1;startSize=26;fillColor=#d5e8d4;horizontalStack=0;resizeParent=1;resizeParentMax=0;resizeLast=0;collapsible=1;marginBottom=0;whiteSpace=wrap;html=1;strokeColor=#82b366;" parent="1" vertex="1">
          <mxGeometry x="70" y="-80" width="140" height="130" as="geometry" />
        </mxCell>
        <mxCell id="WRttjeE3I7V11c35sN3d-2" value="id" style="text;strokeColor=none;fillColor=none;align=left;verticalAlign=top;spacingLeft=4;spacingRight=4;overflow=hidden;rotatable=0;points=[[0,0.5],[1,0.5]];portConstraint=eastwest;whiteSpace=wrap;html=1;" parent="WRttjeE3I7V11c35sN3d-1" vertex="1">
          <mxGeometry y="26" width="140" height="26" as="geometry" />
        </mxCell>
        <mxCell id="WRttjeE3I7V11c35sN3d-3" value="firstname" style="text;strokeColor=none;fillColor=none;align=left;verticalAlign=top;spacingLeft=4;spacingRight=4;overflow=hidden;rotatable=0;points=[[0,0.5],[1,0.5]];portConstraint=eastwest;whiteSpace=wrap;html=1;" parent="WRttjeE3I7V11c35sN3d-1" vertex="1">
          <mxGeometry y="52" width="140" height="26" as="geometry" />
        </mxCell>
        <mxCell id="WRttjeE3I7V11c35sN3d-4" value="lastname" style="text;strokeColor=none;fillColor=none;align=left;verticalAlign=top;spacingLeft=4;spacingRight=4;overflow=hidden;rotatable=0;points=[[0,0.5],[1,0.5]];portConstraint=eastwest;whiteSpace=wrap;html=1;" parent="WRttjeE3I7V11c35sN3d-1" vertex="1">
          <mxGeometry y="78" width="140" height="26" as="geometry" />
        </mxCell>
        <mxCell id="WRttjeE3I7V11c35sN3d-5" value="email" style="text;strokeColor=none;fillColor=none;align=left;verticalAlign=top;spacingLeft=4;spacingRight=4;overflow=hidden;rotatable=0;points=[[0,0.5],[1,0.5]];portConstraint=eastwest;whiteSpace=wrap;html=1;" parent="WRttjeE3I7V11c35sN3d-1" vertex="1">
          <mxGeometry y="104" width="140" height="26" as="geometry" />
        </mxCell>
        <mxCell id="nPPL16FtD3WXAmP0PZX--13" style="edgeStyle=orthogonalEdgeStyle;rounded=0;orthogonalLoop=1;jettySize=auto;html=1;entryX=0;entryY=0.5;entryDx=0;entryDy=0;endArrow=ERmany;endFill=0;startArrow=ERmandOne;startFill=0;" parent="1" source="WRttjeE3I7V11c35sN3d-10" target="nPPL16FtD3WXAmP0PZX--2" edge="1">
          <mxGeometry relative="1" as="geometry" />
        </mxCell>
        <mxCell id="WRttjeE3I7V11c35sN3d-10" value="Order" style="swimlane;fontStyle=0;childLayout=stackLayout;horizontal=1;startSize=26;fillColor=#dae8fc;horizontalStack=0;resizeParent=1;resizeParentMax=0;resizeLast=0;collapsible=1;marginBottom=0;whiteSpace=wrap;html=1;strokeColor=#6c8ebf;" parent="1" vertex="1">
          <mxGeometry x="70" y="200" width="140" height="104" as="geometry" />
        </mxCell>
        <mxCell id="WRttjeE3I7V11c35sN3d-11" value="id" style="text;strokeColor=none;fillColor=none;align=left;verticalAlign=top;spacingLeft=4;spacingRight=4;overflow=hidden;rotatable=0;points=[[0,0.5],[1,0.5]];portConstraint=eastwest;whiteSpace=wrap;html=1;" parent="WRttjeE3I7V11c35sN3d-10" vertex="1">
          <mxGeometry y="26" width="140" height="26" as="geometry" />
        </mxCell>
        <mxCell id="WRttjeE3I7V11c35sN3d-12" value="orderDate" style="text;strokeColor=none;fillColor=none;align=left;verticalAlign=top;spacingLeft=4;spacingRight=4;overflow=hidden;rotatable=0;points=[[0,0.5],[1,0.5]];portConstraint=eastwest;whiteSpace=wrap;html=1;" parent="WRttjeE3I7V11c35sN3d-10" vertex="1">
          <mxGeometry y="52" width="140" height="26" as="geometry" />
        </mxCell>
        <mxCell id="WRttjeE3I7V11c35sN3d-13" value="reference" style="text;strokeColor=none;fillColor=none;align=left;verticalAlign=top;spacingLeft=4;spacingRight=4;overflow=hidden;rotatable=0;points=[[0,0.5],[1,0.5]];portConstraint=eastwest;whiteSpace=wrap;html=1;" parent="WRttjeE3I7V11c35sN3d-10" vertex="1">
          <mxGeometry y="78" width="140" height="26" as="geometry" />
        </mxCell>
        <mxCell id="WRttjeE3I7V11c35sN3d-14" value="Product" style="swimlane;fontStyle=0;childLayout=stackLayout;horizontal=1;startSize=26;fillColor=#fff2cc;horizontalStack=0;resizeParent=1;resizeParentMax=0;resizeLast=0;collapsible=1;marginBottom=0;whiteSpace=wrap;html=1;strokeColor=#d6b656;" parent="1" vertex="1">
          <mxGeometry x="453" y="174" width="140" height="156" as="geometry" />
        </mxCell>
        <mxCell id="WRttjeE3I7V11c35sN3d-15" value="id" style="text;strokeColor=none;fillColor=none;align=left;verticalAlign=top;spacingLeft=4;spacingRight=4;overflow=hidden;rotatable=0;points=[[0,0.5],[1,0.5]];portConstraint=eastwest;whiteSpace=wrap;html=1;" parent="WRttjeE3I7V11c35sN3d-14" vertex="1">
          <mxGeometry y="26" width="140" height="26" as="geometry" />
        </mxCell>
        <mxCell id="WRttjeE3I7V11c35sN3d-16" value="name" style="text;strokeColor=none;fillColor=none;align=left;verticalAlign=top;spacingLeft=4;spacingRight=4;overflow=hidden;rotatable=0;points=[[0,0.5],[1,0.5]];portConstraint=eastwest;whiteSpace=wrap;html=1;" parent="WRttjeE3I7V11c35sN3d-14" vertex="1">
          <mxGeometry y="52" width="140" height="26" as="geometry" />
        </mxCell>
        <mxCell id="WRttjeE3I7V11c35sN3d-17" value="description" style="text;strokeColor=none;fillColor=none;align=left;verticalAlign=top;spacingLeft=4;spacingRight=4;overflow=hidden;rotatable=0;points=[[0,0.5],[1,0.5]];portConstraint=eastwest;whiteSpace=wrap;html=1;" parent="WRttjeE3I7V11c35sN3d-14" vertex="1">
          <mxGeometry y="78" width="140" height="26" as="geometry" />
        </mxCell>
        <mxCell id="WRttjeE3I7V11c35sN3d-18" value="availableQuantity" style="text;strokeColor=none;fillColor=none;align=left;verticalAlign=top;spacingLeft=4;spacingRight=4;overflow=hidden;rotatable=0;points=[[0,0.5],[1,0.5]];portConstraint=eastwest;whiteSpace=wrap;html=1;" parent="WRttjeE3I7V11c35sN3d-14" vertex="1">
          <mxGeometry y="104" width="140" height="26" as="geometry" />
        </mxCell>
        <mxCell id="WRttjeE3I7V11c35sN3d-24" value="price" style="text;strokeColor=none;fillColor=none;align=left;verticalAlign=top;spacingLeft=4;spacingRight=4;overflow=hidden;rotatable=0;points=[[0,0.5],[1,0.5]];portConstraint=eastwest;whiteSpace=wrap;html=1;" parent="WRttjeE3I7V11c35sN3d-14" vertex="1">
          <mxGeometry y="130" width="140" height="26" as="geometry" />
        </mxCell>
        <mxCell id="nPPL16FtD3WXAmP0PZX--27" style="edgeStyle=orthogonalEdgeStyle;rounded=0;orthogonalLoop=1;jettySize=auto;html=1;entryX=0.5;entryY=0;entryDx=0;entryDy=0;startArrow=ERmandOne;startFill=0;endArrow=ERmandOne;endFill=0;" parent="1" source="WRttjeE3I7V11c35sN3d-20" target="nPPL16FtD3WXAmP0PZX--6" edge="1">
          <mxGeometry relative="1" as="geometry" />
        </mxCell>
        <mxCell id="WRttjeE3I7V11c35sN3d-20" value="Payment" style="swimlane;fontStyle=0;childLayout=stackLayout;horizontal=1;startSize=26;fillColor=#ffe6cc;horizontalStack=0;resizeParent=1;resizeParentMax=0;resizeLast=0;collapsible=1;marginBottom=0;whiteSpace=wrap;html=1;strokeColor=#d79b00;" parent="1" vertex="1">
          <mxGeometry x="-180" y="20" width="140" height="130" as="geometry" />
        </mxCell>
        <mxCell id="WRttjeE3I7V11c35sN3d-21" value="id" style="text;strokeColor=none;fillColor=none;align=left;verticalAlign=top;spacingLeft=4;spacingRight=4;overflow=hidden;rotatable=0;points=[[0,0.5],[1,0.5]];portConstraint=eastwest;whiteSpace=wrap;html=1;" parent="WRttjeE3I7V11c35sN3d-20" vertex="1">
          <mxGeometry y="26" width="140" height="26" as="geometry" />
        </mxCell>
        <mxCell id="WRttjeE3I7V11c35sN3d-22" value="reference" style="text;strokeColor=none;fillColor=none;align=left;verticalAlign=top;spacingLeft=4;spacingRight=4;overflow=hidden;rotatable=0;points=[[0,0.5],[1,0.5]];portConstraint=eastwest;whiteSpace=wrap;html=1;" parent="WRttjeE3I7V11c35sN3d-20" vertex="1">
          <mxGeometry y="52" width="140" height="26" as="geometry" />
        </mxCell>
        <mxCell id="WRttjeE3I7V11c35sN3d-23" value="amount" style="text;strokeColor=none;fillColor=none;align=left;verticalAlign=top;spacingLeft=4;spacingRight=4;overflow=hidden;rotatable=0;points=[[0,0.5],[1,0.5]];portConstraint=eastwest;whiteSpace=wrap;html=1;" parent="WRttjeE3I7V11c35sN3d-20" vertex="1">
          <mxGeometry y="78" width="140" height="26" as="geometry" />
        </mxCell>
        <mxCell id="nPPL16FtD3WXAmP0PZX--5" value="status" style="text;strokeColor=none;fillColor=none;align=left;verticalAlign=top;spacingLeft=4;spacingRight=4;overflow=hidden;rotatable=0;points=[[0,0.5],[1,0.5]];portConstraint=eastwest;whiteSpace=wrap;html=1;" parent="WRttjeE3I7V11c35sN3d-20" vertex="1">
          <mxGeometry y="104" width="140" height="26" as="geometry" />
        </mxCell>
        <mxCell id="nPPL16FtD3WXAmP0PZX--1" value="OrderLine" style="swimlane;fontStyle=0;childLayout=stackLayout;horizontal=1;startSize=26;fillColor=#dae8fc;horizontalStack=0;resizeParent=1;resizeParentMax=0;resizeLast=0;collapsible=1;marginBottom=0;whiteSpace=wrap;html=1;strokeColor=#6c8ebf;" parent="1" vertex="1">
          <mxGeometry x="240" y="380" width="140" height="78" as="geometry" />
        </mxCell>
        <mxCell id="nPPL16FtD3WXAmP0PZX--2" value="id" style="text;strokeColor=none;fillColor=none;align=left;verticalAlign=top;spacingLeft=4;spacingRight=4;overflow=hidden;rotatable=0;points=[[0,0.5],[1,0.5]];portConstraint=eastwest;whiteSpace=wrap;html=1;" parent="nPPL16FtD3WXAmP0PZX--1" vertex="1">
          <mxGeometry y="26" width="140" height="26" as="geometry" />
        </mxCell>
        <mxCell id="nPPL16FtD3WXAmP0PZX--3" value="quantity" style="text;strokeColor=none;fillColor=none;align=left;verticalAlign=top;spacingLeft=4;spacingRight=4;overflow=hidden;rotatable=0;points=[[0,0.5],[1,0.5]];portConstraint=eastwest;whiteSpace=wrap;html=1;" parent="nPPL16FtD3WXAmP0PZX--1" vertex="1">
          <mxGeometry y="52" width="140" height="26" as="geometry" />
        </mxCell>
        <mxCell id="nPPL16FtD3WXAmP0PZX--6" value="Notification" style="swimlane;fontStyle=0;childLayout=stackLayout;horizontal=1;startSize=26;fillColor=#e1d5e7;horizontalStack=0;resizeParent=1;resizeParentMax=0;resizeLast=0;collapsible=1;marginBottom=0;whiteSpace=wrap;html=1;strokeColor=#9673a6;" parent="1" vertex="1">
          <mxGeometry x="-180" y="270" width="140" height="156" as="geometry" />
        </mxCell>
        <mxCell id="nPPL16FtD3WXAmP0PZX--7" value="id" style="text;strokeColor=none;fillColor=none;align=left;verticalAlign=top;spacingLeft=4;spacingRight=4;overflow=hidden;rotatable=0;points=[[0,0.5],[1,0.5]];portConstraint=eastwest;whiteSpace=wrap;html=1;" parent="nPPL16FtD3WXAmP0PZX--6" vertex="1">
          <mxGeometry y="26" width="140" height="26" as="geometry" />
        </mxCell>
        <mxCell id="nPPL16FtD3WXAmP0PZX--8" value="sender" style="text;strokeColor=none;fillColor=none;align=left;verticalAlign=top;spacingLeft=4;spacingRight=4;overflow=hidden;rotatable=0;points=[[0,0.5],[1,0.5]];portConstraint=eastwest;whiteSpace=wrap;html=1;" parent="nPPL16FtD3WXAmP0PZX--6" vertex="1">
          <mxGeometry y="52" width="140" height="26" as="geometry" />
        </mxCell>
        <mxCell id="nPPL16FtD3WXAmP0PZX--9" value="recepient" style="text;strokeColor=none;fillColor=none;align=left;verticalAlign=top;spacingLeft=4;spacingRight=4;overflow=hidden;rotatable=0;points=[[0,0.5],[1,0.5]];portConstraint=eastwest;whiteSpace=wrap;html=1;" parent="nPPL16FtD3WXAmP0PZX--6" vertex="1">
          <mxGeometry y="78" width="140" height="26" as="geometry" />
        </mxCell>
        <mxCell id="nPPL16FtD3WXAmP0PZX--10" value="content" style="text;strokeColor=none;fillColor=none;align=left;verticalAlign=top;spacingLeft=4;spacingRight=4;overflow=hidden;rotatable=0;points=[[0,0.5],[1,0.5]];portConstraint=eastwest;whiteSpace=wrap;html=1;" parent="nPPL16FtD3WXAmP0PZX--6" vertex="1">
          <mxGeometry y="104" width="140" height="26" as="geometry" />
        </mxCell>
        <mxCell id="nPPL16FtD3WXAmP0PZX--11" value="date" style="text;strokeColor=none;fillColor=none;align=left;verticalAlign=top;spacingLeft=4;spacingRight=4;overflow=hidden;rotatable=0;points=[[0,0.5],[1,0.5]];portConstraint=eastwest;whiteSpace=wrap;html=1;" parent="nPPL16FtD3WXAmP0PZX--6" vertex="1">
          <mxGeometry y="130" width="140" height="26" as="geometry" />
        </mxCell>
        <mxCell id="nPPL16FtD3WXAmP0PZX--14" style="edgeStyle=orthogonalEdgeStyle;rounded=0;orthogonalLoop=1;jettySize=auto;html=1;entryX=1;entryY=0.5;entryDx=0;entryDy=0;endArrow=ERmany;endFill=0;startArrow=ERmandOne;startFill=0;" parent="1" source="WRttjeE3I7V11c35sN3d-17" target="nPPL16FtD3WXAmP0PZX--2" edge="1">
          <mxGeometry relative="1" as="geometry" />
        </mxCell>
        <mxCell id="nPPL16FtD3WXAmP0PZX--15" style="edgeStyle=orthogonalEdgeStyle;rounded=0;orthogonalLoop=1;jettySize=auto;html=1;startArrow=ERmandOne;startFill=0;endArrow=ERmandOne;endFill=0;" parent="1" source="WRttjeE3I7V11c35sN3d-11" target="WRttjeE3I7V11c35sN3d-21" edge="1">
          <mxGeometry relative="1" as="geometry" />
        </mxCell>
        <mxCell id="nPPL16FtD3WXAmP0PZX--20" style="edgeStyle=orthogonalEdgeStyle;rounded=0;orthogonalLoop=1;jettySize=auto;html=1;entryX=1;entryY=0.5;entryDx=0;entryDy=0;endArrow=ERmany;endFill=0;startArrow=ERmandOne;startFill=0;" parent="1" source="nPPL16FtD3WXAmP0PZX--16" target="WRttjeE3I7V11c35sN3d-15" edge="1">
          <mxGeometry relative="1" as="geometry" />
        </mxCell>
        <mxCell id="nPPL16FtD3WXAmP0PZX--16" value="Category" style="swimlane;fontStyle=0;childLayout=stackLayout;horizontal=1;startSize=26;fillColor=#fff2cc;horizontalStack=0;resizeParent=1;resizeParentMax=0;resizeLast=0;collapsible=1;marginBottom=0;whiteSpace=wrap;html=1;strokeColor=#d6b656;" parent="1" vertex="1">
          <mxGeometry x="608" y="27" width="140" height="104" as="geometry" />
        </mxCell>
        <mxCell id="nPPL16FtD3WXAmP0PZX--17" value="id" style="text;strokeColor=none;fillColor=none;align=left;verticalAlign=top;spacingLeft=4;spacingRight=4;overflow=hidden;rotatable=0;points=[[0,0.5],[1,0.5]];portConstraint=eastwest;whiteSpace=wrap;html=1;" parent="nPPL16FtD3WXAmP0PZX--16" vertex="1">
          <mxGeometry y="26" width="140" height="26" as="geometry" />
        </mxCell>
        <mxCell id="nPPL16FtD3WXAmP0PZX--18" value="name" style="text;strokeColor=none;fillColor=none;align=left;verticalAlign=top;spacingLeft=4;spacingRight=4;overflow=hidden;rotatable=0;points=[[0,0.5],[1,0.5]];portConstraint=eastwest;whiteSpace=wrap;html=1;" parent="nPPL16FtD3WXAmP0PZX--16" vertex="1">
          <mxGeometry y="52" width="140" height="26" as="geometry" />
        </mxCell>
        <mxCell id="nPPL16FtD3WXAmP0PZX--19" value="description" style="text;strokeColor=none;fillColor=none;align=left;verticalAlign=top;spacingLeft=4;spacingRight=4;overflow=hidden;rotatable=0;points=[[0,0.5],[1,0.5]];portConstraint=eastwest;whiteSpace=wrap;html=1;" parent="nPPL16FtD3WXAmP0PZX--16" vertex="1">
          <mxGeometry y="78" width="140" height="26" as="geometry" />
        </mxCell>
        <mxCell id="nPPL16FtD3WXAmP0PZX--21" value="Address" style="swimlane;fontStyle=0;childLayout=stackLayout;horizontal=1;startSize=26;fillColor=#d5e8d4;horizontalStack=0;resizeParent=1;resizeParentMax=0;resizeLast=0;collapsible=1;marginBottom=0;whiteSpace=wrap;html=1;strokeColor=#82b366;" parent="1" vertex="1">
          <mxGeometry x="370" y="-80" width="140" height="130" as="geometry" />
        </mxCell>
        <mxCell id="nPPL16FtD3WXAmP0PZX--22" value="id" style="text;strokeColor=none;fillColor=none;align=left;verticalAlign=top;spacingLeft=4;spacingRight=4;overflow=hidden;rotatable=0;points=[[0,0.5],[1,0.5]];portConstraint=eastwest;whiteSpace=wrap;html=1;" parent="nPPL16FtD3WXAmP0PZX--21" vertex="1">
          <mxGeometry y="26" width="140" height="26" as="geometry" />
        </mxCell>
        <mxCell id="nPPL16FtD3WXAmP0PZX--23" value="street" style="text;strokeColor=none;fillColor=none;align=left;verticalAlign=top;spacingLeft=4;spacingRight=4;overflow=hidden;rotatable=0;points=[[0,0.5],[1,0.5]];portConstraint=eastwest;whiteSpace=wrap;html=1;" parent="nPPL16FtD3WXAmP0PZX--21" vertex="1">
          <mxGeometry y="52" width="140" height="26" as="geometry" />
        </mxCell>
        <mxCell id="nPPL16FtD3WXAmP0PZX--24" value="houseNumber" style="text;strokeColor=none;fillColor=none;align=left;verticalAlign=top;spacingLeft=4;spacingRight=4;overflow=hidden;rotatable=0;points=[[0,0.5],[1,0.5]];portConstraint=eastwest;whiteSpace=wrap;html=1;" parent="nPPL16FtD3WXAmP0PZX--21" vertex="1">
          <mxGeometry y="78" width="140" height="26" as="geometry" />
        </mxCell>
        <mxCell id="nPPL16FtD3WXAmP0PZX--25" value="zipCode" style="text;strokeColor=none;fillColor=none;align=left;verticalAlign=top;spacingLeft=4;spacingRight=4;overflow=hidden;rotatable=0;points=[[0,0.5],[1,0.5]];portConstraint=eastwest;whiteSpace=wrap;html=1;" parent="nPPL16FtD3WXAmP0PZX--21" vertex="1">
          <mxGeometry y="104" width="140" height="26" as="geometry" />
        </mxCell>
        <mxCell id="nPPL16FtD3WXAmP0PZX--26" style="edgeStyle=orthogonalEdgeStyle;rounded=0;orthogonalLoop=1;jettySize=auto;html=1;entryX=1;entryY=0.5;entryDx=0;entryDy=0;endArrow=ERmandOne;endFill=0;startArrow=ERmandOne;startFill=0;" parent="1" source="nPPL16FtD3WXAmP0PZX--22" target="WRttjeE3I7V11c35sN3d-2" edge="1">
          <mxGeometry relative="1" as="geometry" />
        </mxCell>
        <mxCell id="nPPL16FtD3WXAmP0PZX--28" style="edgeStyle=orthogonalEdgeStyle;rounded=0;orthogonalLoop=1;jettySize=auto;html=1;entryX=1;entryY=0.5;entryDx=0;entryDy=0;exitX=0;exitY=0.5;exitDx=0;exitDy=0;endArrow=ERmandOne;endFill=0;startArrow=ERmandOne;startFill=0;" parent="1" source="WRttjeE3I7V11c35sN3d-12" target="nPPL16FtD3WXAmP0PZX--7" edge="1">
          <mxGeometry relative="1" as="geometry" />
        </mxCell>
      </root>
    </mxGraphModel>
  </diagram>
  <diagram name="domain-class-diagram" id="Pt03LO7n771Euc8ru8Yz">
    <mxGraphModel dx="1764" dy="1075" grid="0" gridSize="10" guides="0" tooltips="1" connect="0" arrows="0" fold="1" page="0" pageScale="1" pageWidth="1169" pageHeight="827" math="0" shadow="0">
      <root>
        <mxCell id="QaSKw-nrApPyZHBpUXGP-0" />
        <mxCell id="QaSKw-nrApPyZHBpUXGP-1" parent="QaSKw-nrApPyZHBpUXGP-0" />
        <mxCell id="tCyhS_AfBA6SBSUrJkXq-4" value="&lt;b&gt;Notification Domain&lt;/b&gt;" style="rounded=0;whiteSpace=wrap;html=1;fillColor=none;strokeColor=#9673a6;strokeWidth=3;verticalAlign=top;" parent="QaSKw-nrApPyZHBpUXGP-1" vertex="1">
          <mxGeometry x="-210" y="236" width="200" height="200" as="geometry" />
        </mxCell>
        <mxCell id="tCyhS_AfBA6SBSUrJkXq-3" value="&lt;b&gt;Payment Domain&lt;/b&gt;" style="rounded=0;whiteSpace=wrap;html=1;fillColor=none;strokeColor=#d79b00;strokeWidth=3;verticalAlign=top;" parent="QaSKw-nrApPyZHBpUXGP-1" vertex="1">
          <mxGeometry x="-210" y="-20" width="200" height="200" as="geometry" />
        </mxCell>
        <mxCell id="tCyhS_AfBA6SBSUrJkXq-2" value="&lt;b&gt;Product Domain&lt;/b&gt;" style="rounded=0;whiteSpace=wrap;html=1;fillColor=none;strokeColor=#d6b656;strokeWidth=3;verticalAlign=top;" parent="QaSKw-nrApPyZHBpUXGP-1" vertex="1">
          <mxGeometry x="490" y="40" width="360" height="320" as="geometry" />
        </mxCell>
        <mxCell id="tCyhS_AfBA6SBSUrJkXq-1" value="&lt;b&gt;Order Domain&lt;/b&gt;" style="rounded=0;whiteSpace=wrap;html=1;fillColor=none;strokeColor=#6c8ebf;strokeWidth=3;verticalAlign=top;" parent="QaSKw-nrApPyZHBpUXGP-1" vertex="1">
          <mxGeometry x="50" y="150" width="370" height="350" as="geometry" />
        </mxCell>
        <mxCell id="tCyhS_AfBA6SBSUrJkXq-0" value="&lt;b&gt;Customer Domain&lt;/b&gt;" style="rounded=0;whiteSpace=wrap;html=1;fillColor=none;strokeColor=#82b366;strokeWidth=3;verticalAlign=top;" parent="QaSKw-nrApPyZHBpUXGP-1" vertex="1">
          <mxGeometry x="40" y="-170" width="490" height="200" as="geometry" />
        </mxCell>
        <mxCell id="QaSKw-nrApPyZHBpUXGP-2" style="edgeStyle=orthogonalEdgeStyle;rounded=0;orthogonalLoop=1;jettySize=auto;html=1;entryX=0.5;entryY=0;entryDx=0;entryDy=0;endArrow=ERmany;endFill=0;startArrow=ERmandOne;startFill=0;" parent="QaSKw-nrApPyZHBpUXGP-1" source="QaSKw-nrApPyZHBpUXGP-3" target="QaSKw-nrApPyZHBpUXGP-9" edge="1">
          <mxGeometry relative="1" as="geometry" />
        </mxCell>
        <mxCell id="QaSKw-nrApPyZHBpUXGP-3" value="Customer" style="swimlane;fontStyle=0;childLayout=stackLayout;horizontal=1;startSize=26;fillColor=#d5e8d4;horizontalStack=0;resizeParent=1;resizeParentMax=0;resizeLast=0;collapsible=1;marginBottom=0;whiteSpace=wrap;html=1;strokeColor=#82b366;" parent="QaSKw-nrApPyZHBpUXGP-1" vertex="1">
          <mxGeometry x="70" y="-130" width="140" height="130" as="geometry" />
        </mxCell>
        <mxCell id="QaSKw-nrApPyZHBpUXGP-4" value="id" style="text;strokeColor=none;fillColor=none;align=left;verticalAlign=top;spacingLeft=4;spacingRight=4;overflow=hidden;rotatable=0;points=[[0,0.5],[1,0.5]];portConstraint=eastwest;whiteSpace=wrap;html=1;" parent="QaSKw-nrApPyZHBpUXGP-3" vertex="1">
          <mxGeometry y="26" width="140" height="26" as="geometry" />
        </mxCell>
        <mxCell id="QaSKw-nrApPyZHBpUXGP-5" value="firstname" style="text;strokeColor=none;fillColor=none;align=left;verticalAlign=top;spacingLeft=4;spacingRight=4;overflow=hidden;rotatable=0;points=[[0,0.5],[1,0.5]];portConstraint=eastwest;whiteSpace=wrap;html=1;" parent="QaSKw-nrApPyZHBpUXGP-3" vertex="1">
          <mxGeometry y="52" width="140" height="26" as="geometry" />
        </mxCell>
        <mxCell id="QaSKw-nrApPyZHBpUXGP-6" value="lastname" style="text;strokeColor=none;fillColor=none;align=left;verticalAlign=top;spacingLeft=4;spacingRight=4;overflow=hidden;rotatable=0;points=[[0,0.5],[1,0.5]];portConstraint=eastwest;whiteSpace=wrap;html=1;" parent="QaSKw-nrApPyZHBpUXGP-3" vertex="1">
          <mxGeometry y="78" width="140" height="26" as="geometry" />
        </mxCell>
        <mxCell id="QaSKw-nrApPyZHBpUXGP-7" value="email" style="text;strokeColor=none;fillColor=none;align=left;verticalAlign=top;spacingLeft=4;spacingRight=4;overflow=hidden;rotatable=0;points=[[0,0.5],[1,0.5]];portConstraint=eastwest;whiteSpace=wrap;html=1;" parent="QaSKw-nrApPyZHBpUXGP-3" vertex="1">
          <mxGeometry y="104" width="140" height="26" as="geometry" />
        </mxCell>
        <mxCell id="QaSKw-nrApPyZHBpUXGP-8" style="edgeStyle=orthogonalEdgeStyle;rounded=0;orthogonalLoop=1;jettySize=auto;html=1;entryX=0;entryY=0.5;entryDx=0;entryDy=0;endArrow=ERmany;endFill=0;startArrow=ERmandOne;startFill=0;" parent="QaSKw-nrApPyZHBpUXGP-1" source="QaSKw-nrApPyZHBpUXGP-9" target="QaSKw-nrApPyZHBpUXGP-26" edge="1">
          <mxGeometry relative="1" as="geometry" />
        </mxCell>
        <mxCell id="QaSKw-nrApPyZHBpUXGP-9" value="Order" style="swimlane;fontStyle=0;childLayout=stackLayout;horizontal=1;startSize=26;fillColor=#dae8fc;horizontalStack=0;resizeParent=1;resizeParentMax=0;resizeLast=0;collapsible=1;marginBottom=0;whiteSpace=wrap;html=1;strokeColor=#6c8ebf;" parent="QaSKw-nrApPyZHBpUXGP-1" vertex="1">
          <mxGeometry x="70" y="200" width="140" height="104" as="geometry" />
        </mxCell>
        <mxCell id="QaSKw-nrApPyZHBpUXGP-10" value="id" style="text;strokeColor=none;fillColor=none;align=left;verticalAlign=top;spacingLeft=4;spacingRight=4;overflow=hidden;rotatable=0;points=[[0,0.5],[1,0.5]];portConstraint=eastwest;whiteSpace=wrap;html=1;" parent="QaSKw-nrApPyZHBpUXGP-9" vertex="1">
          <mxGeometry y="26" width="140" height="26" as="geometry" />
        </mxCell>
        <mxCell id="QaSKw-nrApPyZHBpUXGP-11" value="orderDate" style="text;strokeColor=none;fillColor=none;align=left;verticalAlign=top;spacingLeft=4;spacingRight=4;overflow=hidden;rotatable=0;points=[[0,0.5],[1,0.5]];portConstraint=eastwest;whiteSpace=wrap;html=1;" parent="QaSKw-nrApPyZHBpUXGP-9" vertex="1">
          <mxGeometry y="52" width="140" height="26" as="geometry" />
        </mxCell>
        <mxCell id="QaSKw-nrApPyZHBpUXGP-12" value="reference" style="text;strokeColor=none;fillColor=none;align=left;verticalAlign=top;spacingLeft=4;spacingRight=4;overflow=hidden;rotatable=0;points=[[0,0.5],[1,0.5]];portConstraint=eastwest;whiteSpace=wrap;html=1;" parent="QaSKw-nrApPyZHBpUXGP-9" vertex="1">
          <mxGeometry y="78" width="140" height="26" as="geometry" />
        </mxCell>
        <mxCell id="QaSKw-nrApPyZHBpUXGP-13" value="Product" style="swimlane;fontStyle=0;childLayout=stackLayout;horizontal=1;startSize=26;fillColor=#fff2cc;horizontalStack=0;resizeParent=1;resizeParentMax=0;resizeLast=0;collapsible=1;marginBottom=0;whiteSpace=wrap;html=1;strokeColor=#d6b656;" parent="QaSKw-nrApPyZHBpUXGP-1" vertex="1">
          <mxGeometry x="530" y="182" width="140" height="156" as="geometry" />
        </mxCell>
        <mxCell id="QaSKw-nrApPyZHBpUXGP-14" value="id" style="text;strokeColor=none;fillColor=none;align=left;verticalAlign=top;spacingLeft=4;spacingRight=4;overflow=hidden;rotatable=0;points=[[0,0.5],[1,0.5]];portConstraint=eastwest;whiteSpace=wrap;html=1;" parent="QaSKw-nrApPyZHBpUXGP-13" vertex="1">
          <mxGeometry y="26" width="140" height="26" as="geometry" />
        </mxCell>
        <mxCell id="QaSKw-nrApPyZHBpUXGP-15" value="name" style="text;strokeColor=none;fillColor=none;align=left;verticalAlign=top;spacingLeft=4;spacingRight=4;overflow=hidden;rotatable=0;points=[[0,0.5],[1,0.5]];portConstraint=eastwest;whiteSpace=wrap;html=1;" parent="QaSKw-nrApPyZHBpUXGP-13" vertex="1">
          <mxGeometry y="52" width="140" height="26" as="geometry" />
        </mxCell>
        <mxCell id="QaSKw-nrApPyZHBpUXGP-16" value="description" style="text;strokeColor=none;fillColor=none;align=left;verticalAlign=top;spacingLeft=4;spacingRight=4;overflow=hidden;rotatable=0;points=[[0,0.5],[1,0.5]];portConstraint=eastwest;whiteSpace=wrap;html=1;" parent="QaSKw-nrApPyZHBpUXGP-13" vertex="1">
          <mxGeometry y="78" width="140" height="26" as="geometry" />
        </mxCell>
        <mxCell id="QaSKw-nrApPyZHBpUXGP-17" value="availableQuantity" style="text;strokeColor=none;fillColor=none;align=left;verticalAlign=top;spacingLeft=4;spacingRight=4;overflow=hidden;rotatable=0;points=[[0,0.5],[1,0.5]];portConstraint=eastwest;whiteSpace=wrap;html=1;" parent="QaSKw-nrApPyZHBpUXGP-13" vertex="1">
          <mxGeometry y="104" width="140" height="26" as="geometry" />
        </mxCell>
        <mxCell id="QaSKw-nrApPyZHBpUXGP-18" value="price" style="text;strokeColor=none;fillColor=none;align=left;verticalAlign=top;spacingLeft=4;spacingRight=4;overflow=hidden;rotatable=0;points=[[0,0.5],[1,0.5]];portConstraint=eastwest;whiteSpace=wrap;html=1;" parent="QaSKw-nrApPyZHBpUXGP-13" vertex="1">
          <mxGeometry y="130" width="140" height="26" as="geometry" />
        </mxCell>
        <mxCell id="QaSKw-nrApPyZHBpUXGP-19" style="edgeStyle=orthogonalEdgeStyle;rounded=0;orthogonalLoop=1;jettySize=auto;html=1;entryX=0.5;entryY=0;entryDx=0;entryDy=0;startArrow=ERmandOne;startFill=0;endArrow=ERmandOne;endFill=0;" parent="QaSKw-nrApPyZHBpUXGP-1" source="QaSKw-nrApPyZHBpUXGP-20" target="QaSKw-nrApPyZHBpUXGP-28" edge="1">
          <mxGeometry relative="1" as="geometry" />
        </mxCell>
        <mxCell id="QaSKw-nrApPyZHBpUXGP-20" value="Payment" style="swimlane;fontStyle=0;childLayout=stackLayout;horizontal=1;startSize=26;fillColor=#ffe6cc;horizontalStack=0;resizeParent=1;resizeParentMax=0;resizeLast=0;collapsible=1;marginBottom=0;whiteSpace=wrap;html=1;strokeColor=#d79b00;" parent="QaSKw-nrApPyZHBpUXGP-1" vertex="1">
          <mxGeometry x="-180" y="20" width="140" height="130" as="geometry" />
        </mxCell>
        <mxCell id="QaSKw-nrApPyZHBpUXGP-21" value="id" style="text;strokeColor=none;fillColor=none;align=left;verticalAlign=top;spacingLeft=4;spacingRight=4;overflow=hidden;rotatable=0;points=[[0,0.5],[1,0.5]];portConstraint=eastwest;whiteSpace=wrap;html=1;" parent="QaSKw-nrApPyZHBpUXGP-20" vertex="1">
          <mxGeometry y="26" width="140" height="26" as="geometry" />
        </mxCell>
        <mxCell id="QaSKw-nrApPyZHBpUXGP-22" value="reference" style="text;strokeColor=none;fillColor=none;align=left;verticalAlign=top;spacingLeft=4;spacingRight=4;overflow=hidden;rotatable=0;points=[[0,0.5],[1,0.5]];portConstraint=eastwest;whiteSpace=wrap;html=1;" parent="QaSKw-nrApPyZHBpUXGP-20" vertex="1">
          <mxGeometry y="52" width="140" height="26" as="geometry" />
        </mxCell>
        <mxCell id="QaSKw-nrApPyZHBpUXGP-23" value="amount" style="text;strokeColor=none;fillColor=none;align=left;verticalAlign=top;spacingLeft=4;spacingRight=4;overflow=hidden;rotatable=0;points=[[0,0.5],[1,0.5]];portConstraint=eastwest;whiteSpace=wrap;html=1;" parent="QaSKw-nrApPyZHBpUXGP-20" vertex="1">
          <mxGeometry y="78" width="140" height="26" as="geometry" />
        </mxCell>
        <mxCell id="QaSKw-nrApPyZHBpUXGP-24" value="status" style="text;strokeColor=none;fillColor=none;align=left;verticalAlign=top;spacingLeft=4;spacingRight=4;overflow=hidden;rotatable=0;points=[[0,0.5],[1,0.5]];portConstraint=eastwest;whiteSpace=wrap;html=1;" parent="QaSKw-nrApPyZHBpUXGP-20" vertex="1">
          <mxGeometry y="104" width="140" height="26" as="geometry" />
        </mxCell>
        <mxCell id="QaSKw-nrApPyZHBpUXGP-25" value="OrderLine" style="swimlane;fontStyle=0;childLayout=stackLayout;horizontal=1;startSize=26;fillColor=#dae8fc;horizontalStack=0;resizeParent=1;resizeParentMax=0;resizeLast=0;collapsible=1;marginBottom=0;whiteSpace=wrap;html=1;strokeColor=#6c8ebf;" parent="QaSKw-nrApPyZHBpUXGP-1" vertex="1">
          <mxGeometry x="240" y="380" width="140" height="78" as="geometry" />
        </mxCell>
        <mxCell id="QaSKw-nrApPyZHBpUXGP-26" value="id" style="text;strokeColor=none;fillColor=none;align=left;verticalAlign=top;spacingLeft=4;spacingRight=4;overflow=hidden;rotatable=0;points=[[0,0.5],[1,0.5]];portConstraint=eastwest;whiteSpace=wrap;html=1;" parent="QaSKw-nrApPyZHBpUXGP-25" vertex="1">
          <mxGeometry y="26" width="140" height="26" as="geometry" />
        </mxCell>
        <mxCell id="QaSKw-nrApPyZHBpUXGP-27" value="quantity" style="text;strokeColor=none;fillColor=none;align=left;verticalAlign=top;spacingLeft=4;spacingRight=4;overflow=hidden;rotatable=0;points=[[0,0.5],[1,0.5]];portConstraint=eastwest;whiteSpace=wrap;html=1;" parent="QaSKw-nrApPyZHBpUXGP-25" vertex="1">
          <mxGeometry y="52" width="140" height="26" as="geometry" />
        </mxCell>
        <mxCell id="QaSKw-nrApPyZHBpUXGP-28" value="Notification" style="swimlane;fontStyle=0;childLayout=stackLayout;horizontal=1;startSize=26;fillColor=#e1d5e7;horizontalStack=0;resizeParent=1;resizeParentMax=0;resizeLast=0;collapsible=1;marginBottom=0;whiteSpace=wrap;html=1;strokeColor=#9673a6;" parent="QaSKw-nrApPyZHBpUXGP-1" vertex="1">
          <mxGeometry x="-180" y="270" width="140" height="156" as="geometry" />
        </mxCell>
        <mxCell id="QaSKw-nrApPyZHBpUXGP-29" value="id" style="text;strokeColor=none;fillColor=none;align=left;verticalAlign=top;spacingLeft=4;spacingRight=4;overflow=hidden;rotatable=0;points=[[0,0.5],[1,0.5]];portConstraint=eastwest;whiteSpace=wrap;html=1;" parent="QaSKw-nrApPyZHBpUXGP-28" vertex="1">
          <mxGeometry y="26" width="140" height="26" as="geometry" />
        </mxCell>
        <mxCell id="QaSKw-nrApPyZHBpUXGP-30" value="sender" style="text;strokeColor=none;fillColor=none;align=left;verticalAlign=top;spacingLeft=4;spacingRight=4;overflow=hidden;rotatable=0;points=[[0,0.5],[1,0.5]];portConstraint=eastwest;whiteSpace=wrap;html=1;" parent="QaSKw-nrApPyZHBpUXGP-28" vertex="1">
          <mxGeometry y="52" width="140" height="26" as="geometry" />
        </mxCell>
        <mxCell id="QaSKw-nrApPyZHBpUXGP-31" value="recepient" style="text;strokeColor=none;fillColor=none;align=left;verticalAlign=top;spacingLeft=4;spacingRight=4;overflow=hidden;rotatable=0;points=[[0,0.5],[1,0.5]];portConstraint=eastwest;whiteSpace=wrap;html=1;" parent="QaSKw-nrApPyZHBpUXGP-28" vertex="1">
          <mxGeometry y="78" width="140" height="26" as="geometry" />
        </mxCell>
        <mxCell id="QaSKw-nrApPyZHBpUXGP-32" value="content" style="text;strokeColor=none;fillColor=none;align=left;verticalAlign=top;spacingLeft=4;spacingRight=4;overflow=hidden;rotatable=0;points=[[0,0.5],[1,0.5]];portConstraint=eastwest;whiteSpace=wrap;html=1;" parent="QaSKw-nrApPyZHBpUXGP-28" vertex="1">
          <mxGeometry y="104" width="140" height="26" as="geometry" />
        </mxCell>
        <mxCell id="QaSKw-nrApPyZHBpUXGP-33" value="date" style="text;strokeColor=none;fillColor=none;align=left;verticalAlign=top;spacingLeft=4;spacingRight=4;overflow=hidden;rotatable=0;points=[[0,0.5],[1,0.5]];portConstraint=eastwest;whiteSpace=wrap;html=1;" parent="QaSKw-nrApPyZHBpUXGP-28" vertex="1">
          <mxGeometry y="130" width="140" height="26" as="geometry" />
        </mxCell>
        <mxCell id="QaSKw-nrApPyZHBpUXGP-34" style="edgeStyle=orthogonalEdgeStyle;rounded=0;orthogonalLoop=1;jettySize=auto;html=1;entryX=1;entryY=0.5;entryDx=0;entryDy=0;endArrow=ERmany;endFill=0;startArrow=ERmandOne;startFill=0;" parent="QaSKw-nrApPyZHBpUXGP-1" source="QaSKw-nrApPyZHBpUXGP-16" target="QaSKw-nrApPyZHBpUXGP-26" edge="1">
          <mxGeometry relative="1" as="geometry" />
        </mxCell>
        <mxCell id="QaSKw-nrApPyZHBpUXGP-35" style="edgeStyle=orthogonalEdgeStyle;rounded=0;orthogonalLoop=1;jettySize=auto;html=1;startArrow=ERmandOne;startFill=0;endArrow=ERmandOne;endFill=0;" parent="QaSKw-nrApPyZHBpUXGP-1" source="QaSKw-nrApPyZHBpUXGP-10" target="QaSKw-nrApPyZHBpUXGP-21" edge="1">
          <mxGeometry relative="1" as="geometry" />
        </mxCell>
        <mxCell id="QaSKw-nrApPyZHBpUXGP-36" style="edgeStyle=orthogonalEdgeStyle;rounded=0;orthogonalLoop=1;jettySize=auto;html=1;entryX=1;entryY=0.5;entryDx=0;entryDy=0;endArrow=ERmany;endFill=0;startArrow=ERmandOne;startFill=0;" parent="QaSKw-nrApPyZHBpUXGP-1" source="QaSKw-nrApPyZHBpUXGP-37" target="QaSKw-nrApPyZHBpUXGP-14" edge="1">
          <mxGeometry relative="1" as="geometry" />
        </mxCell>
        <mxCell id="QaSKw-nrApPyZHBpUXGP-37" value="Category" style="swimlane;fontStyle=0;childLayout=stackLayout;horizontal=1;startSize=26;fillColor=#fff2cc;horizontalStack=0;resizeParent=1;resizeParentMax=0;resizeLast=0;collapsible=1;marginBottom=0;whiteSpace=wrap;html=1;strokeColor=#d6b656;" parent="QaSKw-nrApPyZHBpUXGP-1" vertex="1">
          <mxGeometry x="690" y="76" width="140" height="104" as="geometry" />
        </mxCell>
        <mxCell id="QaSKw-nrApPyZHBpUXGP-38" value="id" style="text;strokeColor=none;fillColor=none;align=left;verticalAlign=top;spacingLeft=4;spacingRight=4;overflow=hidden;rotatable=0;points=[[0,0.5],[1,0.5]];portConstraint=eastwest;whiteSpace=wrap;html=1;" parent="QaSKw-nrApPyZHBpUXGP-37" vertex="1">
          <mxGeometry y="26" width="140" height="26" as="geometry" />
        </mxCell>
        <mxCell id="QaSKw-nrApPyZHBpUXGP-39" value="name" style="text;strokeColor=none;fillColor=none;align=left;verticalAlign=top;spacingLeft=4;spacingRight=4;overflow=hidden;rotatable=0;points=[[0,0.5],[1,0.5]];portConstraint=eastwest;whiteSpace=wrap;html=1;" parent="QaSKw-nrApPyZHBpUXGP-37" vertex="1">
          <mxGeometry y="52" width="140" height="26" as="geometry" />
        </mxCell>
        <mxCell id="QaSKw-nrApPyZHBpUXGP-40" value="description" style="text;strokeColor=none;fillColor=none;align=left;verticalAlign=top;spacingLeft=4;spacingRight=4;overflow=hidden;rotatable=0;points=[[0,0.5],[1,0.5]];portConstraint=eastwest;whiteSpace=wrap;html=1;" parent="QaSKw-nrApPyZHBpUXGP-37" vertex="1">
          <mxGeometry y="78" width="140" height="26" as="geometry" />
        </mxCell>
        <mxCell id="QaSKw-nrApPyZHBpUXGP-41" value="Address" style="swimlane;fontStyle=0;childLayout=stackLayout;horizontal=1;startSize=26;fillColor=#d5e8d4;horizontalStack=0;resizeParent=1;resizeParentMax=0;resizeLast=0;collapsible=1;marginBottom=0;whiteSpace=wrap;html=1;strokeColor=#82b366;" parent="QaSKw-nrApPyZHBpUXGP-1" vertex="1">
          <mxGeometry x="370" y="-130" width="140" height="130" as="geometry" />
        </mxCell>
        <mxCell id="QaSKw-nrApPyZHBpUXGP-42" value="id" style="text;strokeColor=none;fillColor=none;align=left;verticalAlign=top;spacingLeft=4;spacingRight=4;overflow=hidden;rotatable=0;points=[[0,0.5],[1,0.5]];portConstraint=eastwest;whiteSpace=wrap;html=1;" parent="QaSKw-nrApPyZHBpUXGP-41" vertex="1">
          <mxGeometry y="26" width="140" height="26" as="geometry" />
        </mxCell>
        <mxCell id="QaSKw-nrApPyZHBpUXGP-43" value="street" style="text;strokeColor=none;fillColor=none;align=left;verticalAlign=top;spacingLeft=4;spacingRight=4;overflow=hidden;rotatable=0;points=[[0,0.5],[1,0.5]];portConstraint=eastwest;whiteSpace=wrap;html=1;" parent="QaSKw-nrApPyZHBpUXGP-41" vertex="1">
          <mxGeometry y="52" width="140" height="26" as="geometry" />
        </mxCell>
        <mxCell id="QaSKw-nrApPyZHBpUXGP-44" value="houseNumber" style="text;strokeColor=none;fillColor=none;align=left;verticalAlign=top;spacingLeft=4;spacingRight=4;overflow=hidden;rotatable=0;points=[[0,0.5],[1,0.5]];portConstraint=eastwest;whiteSpace=wrap;html=1;" parent="QaSKw-nrApPyZHBpUXGP-41" vertex="1">
          <mxGeometry y="78" width="140" height="26" as="geometry" />
        </mxCell>
        <mxCell id="QaSKw-nrApPyZHBpUXGP-45" value="zipCode" style="text;strokeColor=none;fillColor=none;align=left;verticalAlign=top;spacingLeft=4;spacingRight=4;overflow=hidden;rotatable=0;points=[[0,0.5],[1,0.5]];portConstraint=eastwest;whiteSpace=wrap;html=1;" parent="QaSKw-nrApPyZHBpUXGP-41" vertex="1">
          <mxGeometry y="104" width="140" height="26" as="geometry" />
        </mxCell>
        <mxCell id="QaSKw-nrApPyZHBpUXGP-46" style="edgeStyle=orthogonalEdgeStyle;rounded=0;orthogonalLoop=1;jettySize=auto;html=1;entryX=1;entryY=0.5;entryDx=0;entryDy=0;endArrow=ERmandOne;endFill=0;startArrow=ERmandOne;startFill=0;" parent="QaSKw-nrApPyZHBpUXGP-1" source="QaSKw-nrApPyZHBpUXGP-42" target="QaSKw-nrApPyZHBpUXGP-4" edge="1">
          <mxGeometry relative="1" as="geometry" />
        </mxCell>
        <mxCell id="QaSKw-nrApPyZHBpUXGP-47" style="edgeStyle=orthogonalEdgeStyle;rounded=0;orthogonalLoop=1;jettySize=auto;html=1;entryX=1;entryY=0.5;entryDx=0;entryDy=0;exitX=0;exitY=0.5;exitDx=0;exitDy=0;endArrow=ERmandOne;endFill=0;startArrow=ERmandOne;startFill=0;" parent="QaSKw-nrApPyZHBpUXGP-1" source="QaSKw-nrApPyZHBpUXGP-11" target="QaSKw-nrApPyZHBpUXGP-29" edge="1">
          <mxGeometry relative="1" as="geometry" />
        </mxCell>
      </root>
    </mxGraphModel>
  </diagram>
  <diagram name="async-communication" id="bKedbn87Ov6-_K8cFrOD">
    <mxGraphModel dx="1301" dy="846" grid="0" gridSize="10" guides="0" tooltips="1" connect="0" arrows="0" fold="1" page="0" pageScale="1" pageWidth="1169" pageHeight="827" math="0" shadow="0">
      <root>
        <mxCell id="0" />
        <mxCell id="1" parent="0" />
        <mxCell id="6x_ADi77GeF3N2mLvvYw-3" value="" style="shape=cylinder3;whiteSpace=wrap;html=1;boundedLbl=1;backgroundOutline=1;size=15;rotation=90;" parent="1" vertex="1">
          <mxGeometry x="122.5" y="-112.5" width="155" height="390" as="geometry" />
        </mxCell>
        <mxCell id="BDEwJi6k6QcXwIYJIIJd-1" style="edgeStyle=orthogonalEdgeStyle;rounded=0;orthogonalLoop=1;jettySize=auto;html=1;entryX=0;entryY=0.5;entryDx=0;entryDy=0;flowAnimation=1;strokeWidth=2;fillColor=#1ba1e2;strokeColor=#006EAF;" parent="1" source="6x_ADi77GeF3N2mLvvYw-1" target="KhQSRNgivRpIOInoGsQY-10" edge="1">
          <mxGeometry relative="1" as="geometry" />
        </mxCell>
        <mxCell id="6x_ADi77GeF3N2mLvvYw-1" value="Order service" style="shape=image;verticalLabelPosition=bottom;labelBackgroundColor=default;verticalAlign=top;aspect=fixed;imageAspect=0;image=https://images.ctfassets.net/gt6dp23g0g38/5DqlQtFKecFlkqQ8YGDT2p/aa945b648f44dd872e9a1b89f7d203ef/springboot.png;" parent="1" vertex="1">
          <mxGeometry x="-250" y="-40" width="77.94" height="70" as="geometry" />
        </mxCell>
        <mxCell id="BDEwJi6k6QcXwIYJIIJd-2" style="edgeStyle=orthogonalEdgeStyle;rounded=0;orthogonalLoop=1;jettySize=auto;html=1;entryX=0;entryY=0.5;entryDx=0;entryDy=0;flowAnimation=1;strokeWidth=2;fillColor=#1ba1e2;strokeColor=#006EAF;" parent="1" source="6x_ADi77GeF3N2mLvvYw-2" target="KhQSRNgivRpIOInoGsQY-2" edge="1">
          <mxGeometry relative="1" as="geometry" />
        </mxCell>
        <mxCell id="6x_ADi77GeF3N2mLvvYw-2" value="Payment service" style="shape=image;verticalLabelPosition=bottom;labelBackgroundColor=default;verticalAlign=top;aspect=fixed;imageAspect=0;image=https://images.ctfassets.net/gt6dp23g0g38/5DqlQtFKecFlkqQ8YGDT2p/aa945b648f44dd872e9a1b89f7d203ef/springboot.png;" parent="1" vertex="1">
          <mxGeometry x="-250" y="110" width="77.94" height="70" as="geometry" />
        </mxCell>
        <mxCell id="BDEwJi6k6QcXwIYJIIJd-3" style="edgeStyle=entityRelationEdgeStyle;rounded=0;orthogonalLoop=1;jettySize=auto;html=1;entryX=1;entryY=0.5;entryDx=0;entryDy=0;flowAnimation=1;strokeWidth=2;fillColor=#60a917;strokeColor=#2D7600;" parent="1" source="6x_ADi77GeF3N2mLvvYw-4" target="KhQSRNgivRpIOInoGsQY-10" edge="1">
          <mxGeometry relative="1" as="geometry" />
        </mxCell>
        <mxCell id="BDEwJi6k6QcXwIYJIIJd-4" style="edgeStyle=entityRelationEdgeStyle;rounded=0;orthogonalLoop=1;jettySize=auto;html=1;entryX=1;entryY=0.5;entryDx=0;entryDy=0;flowAnimation=1;strokeWidth=2;fillColor=#60a917;strokeColor=#2D7600;" parent="1" source="6x_ADi77GeF3N2mLvvYw-4" target="KhQSRNgivRpIOInoGsQY-2" edge="1">
          <mxGeometry relative="1" as="geometry" />
        </mxCell>
        <mxCell id="bptwb3j-g_TwmTFqLHP_-3" style="edgeStyle=orthogonalEdgeStyle;rounded=0;orthogonalLoop=1;jettySize=auto;html=1;shape=link;flowAnimation=1;strokeWidth=2;" parent="1" source="6x_ADi77GeF3N2mLvvYw-4" target="bptwb3j-g_TwmTFqLHP_-1" edge="1">
          <mxGeometry relative="1" as="geometry" />
        </mxCell>
        <mxCell id="bptwb3j-g_TwmTFqLHP_-5" style="edgeStyle=orthogonalEdgeStyle;rounded=0;orthogonalLoop=1;jettySize=auto;html=1;shape=link;" parent="1" source="6x_ADi77GeF3N2mLvvYw-4" target="bptwb3j-g_TwmTFqLHP_-4" edge="1">
          <mxGeometry relative="1" as="geometry" />
        </mxCell>
        <mxCell id="6x_ADi77GeF3N2mLvvYw-4" value="Notification service" style="shape=image;verticalLabelPosition=bottom;labelBackgroundColor=default;verticalAlign=top;aspect=fixed;imageAspect=0;image=https://images.ctfassets.net/gt6dp23g0g38/5DqlQtFKecFlkqQ8YGDT2p/aa945b648f44dd872e9a1b89f7d203ef/springboot.png;" parent="1" vertex="1">
          <mxGeometry x="550" y="47.5" width="77.94" height="70" as="geometry" />
        </mxCell>
        <mxCell id="KhQSRNgivRpIOInoGsQY-1" value="" style="group;fillColor=#dae8fc;strokeColor=#6c8ebf;container=0;" parent="1" vertex="1" connectable="0">
          <mxGeometry x="40" y="90" width="310" height="60" as="geometry" />
        </mxCell>
        <mxCell id="KhQSRNgivRpIOInoGsQY-2" value="payment-topic" style="rounded=0;whiteSpace=wrap;html=1;container=0;fillColor=#ffe6cc;strokeColor=#d79b00;verticalAlign=bottom;" parent="1" vertex="1">
          <mxGeometry x="40" y="90" width="310" height="60" as="geometry" />
        </mxCell>
        <mxCell id="KhQSRNgivRpIOInoGsQY-3" value="" style="shape=message;html=1;html=1;outlineConnect=0;labelPosition=center;verticalLabelPosition=bottom;align=center;verticalAlign=top;container=0;" parent="1" vertex="1">
          <mxGeometry x="50" y="107.5" width="40" height="25" as="geometry" />
        </mxCell>
        <mxCell id="KhQSRNgivRpIOInoGsQY-4" value="" style="shape=message;html=1;html=1;outlineConnect=0;labelPosition=center;verticalLabelPosition=bottom;align=center;verticalAlign=top;container=0;" parent="1" vertex="1">
          <mxGeometry x="100" y="107.5" width="40" height="25" as="geometry" />
        </mxCell>
        <mxCell id="KhQSRNgivRpIOInoGsQY-5" value="" style="shape=message;html=1;html=1;outlineConnect=0;labelPosition=center;verticalLabelPosition=bottom;align=center;verticalAlign=top;container=0;" parent="1" vertex="1">
          <mxGeometry x="150" y="107.5" width="40" height="25" as="geometry" />
        </mxCell>
        <mxCell id="KhQSRNgivRpIOInoGsQY-6" value="" style="shape=message;html=1;html=1;outlineConnect=0;labelPosition=center;verticalLabelPosition=bottom;align=center;verticalAlign=top;container=0;" parent="1" vertex="1">
          <mxGeometry x="200" y="107.5" width="40" height="25" as="geometry" />
        </mxCell>
        <mxCell id="KhQSRNgivRpIOInoGsQY-7" value="" style="shape=message;html=1;html=1;outlineConnect=0;labelPosition=center;verticalLabelPosition=bottom;align=center;verticalAlign=top;container=0;" parent="1" vertex="1">
          <mxGeometry x="250" y="107.5" width="40" height="25" as="geometry" />
        </mxCell>
        <mxCell id="KhQSRNgivRpIOInoGsQY-8" value="" style="shape=message;html=1;html=1;outlineConnect=0;labelPosition=center;verticalLabelPosition=bottom;align=center;verticalAlign=top;container=0;" parent="1" vertex="1">
          <mxGeometry x="300" y="107.5" width="40" height="25" as="geometry" />
        </mxCell>
        <mxCell id="KhQSRNgivRpIOInoGsQY-9" value="" style="group;fillColor=#dae8fc;strokeColor=#6c8ebf;container=0;" parent="1" vertex="1" connectable="0">
          <mxGeometry x="40" y="20" width="310" height="60" as="geometry" />
        </mxCell>
        <mxCell id="KhQSRNgivRpIOInoGsQY-10" value="order-topic" style="rounded=0;whiteSpace=wrap;html=1;container=0;fillColor=#dae8fc;strokeColor=#6c8ebf;verticalAlign=bottom;" parent="1" vertex="1">
          <mxGeometry x="40" y="20" width="310" height="60" as="geometry" />
        </mxCell>
        <mxCell id="KhQSRNgivRpIOInoGsQY-11" value="" style="shape=message;html=1;html=1;outlineConnect=0;labelPosition=center;verticalLabelPosition=bottom;align=center;verticalAlign=top;container=0;" parent="1" vertex="1">
          <mxGeometry x="50" y="37.5" width="40" height="25" as="geometry" />
        </mxCell>
        <mxCell id="KhQSRNgivRpIOInoGsQY-12" value="" style="shape=message;html=1;html=1;outlineConnect=0;labelPosition=center;verticalLabelPosition=bottom;align=center;verticalAlign=top;container=0;" parent="1" vertex="1">
          <mxGeometry x="100" y="37.5" width="40" height="25" as="geometry" />
        </mxCell>
        <mxCell id="KhQSRNgivRpIOInoGsQY-13" value="" style="shape=message;html=1;html=1;outlineConnect=0;labelPosition=center;verticalLabelPosition=bottom;align=center;verticalAlign=top;container=0;" parent="1" vertex="1">
          <mxGeometry x="150" y="37.5" width="40" height="25" as="geometry" />
        </mxCell>
        <mxCell id="KhQSRNgivRpIOInoGsQY-14" value="" style="shape=message;html=1;html=1;outlineConnect=0;labelPosition=center;verticalLabelPosition=bottom;align=center;verticalAlign=top;container=0;" parent="1" vertex="1">
          <mxGeometry x="200" y="37.5" width="40" height="25" as="geometry" />
        </mxCell>
        <mxCell id="KhQSRNgivRpIOInoGsQY-15" value="" style="shape=message;html=1;html=1;outlineConnect=0;labelPosition=center;verticalLabelPosition=bottom;align=center;verticalAlign=top;container=0;" parent="1" vertex="1">
          <mxGeometry x="250" y="37.5" width="40" height="25" as="geometry" />
        </mxCell>
        <mxCell id="KhQSRNgivRpIOInoGsQY-16" value="" style="shape=message;html=1;html=1;outlineConnect=0;labelPosition=center;verticalLabelPosition=bottom;align=center;verticalAlign=top;container=0;" parent="1" vertex="1">
          <mxGeometry x="300" y="37.5" width="40" height="25" as="geometry" />
        </mxCell>
        <mxCell id="BDEwJi6k6QcXwIYJIIJd-5" value="&lt;b&gt;Kafka Broker&lt;/b&gt;" style="text;html=1;align=center;verticalAlign=middle;resizable=0;points=[];autosize=1;strokeColor=none;fillColor=none;" parent="1" vertex="1">
          <mxGeometry x="122.5" y="160" width="100" height="30" as="geometry" />
        </mxCell>
        <mxCell id="bptwb3j-g_TwmTFqLHP_-1" value="" style="shape=image;verticalLabelPosition=bottom;labelBackgroundColor=default;verticalAlign=top;aspect=fixed;imageAspect=0;image=https://www.opc-router.de/wp-content/uploads/2021/03/mongodb_thumbnail.png;" parent="1" vertex="1">
          <mxGeometry x="553.65" y="204" width="70.63" height="95" as="geometry" />
        </mxCell>
        <mxCell id="bptwb3j-g_TwmTFqLHP_-2" value="" style="sketch=0;aspect=fixed;html=1;points=[];align=center;image;fontSize=12;image=img/lib/mscae/Docker.svg;fillColor=none;" parent="1" vertex="1">
          <mxGeometry x="520" y="258" width="50" height="41" as="geometry" />
        </mxCell>
        <mxCell id="bptwb3j-g_TwmTFqLHP_-4" value="" style="verticalLabelPosition=bottom;html=1;verticalAlign=top;strokeWidth=1;align=center;outlineConnect=0;dashed=0;outlineConnect=0;shape=mxgraph.aws3d.email_service;fillColor=#dae8fc;strokeColor=#6c8ebf;aspect=fixed;" parent="1" vertex="1">
          <mxGeometry x="560.65" y="-100" width="56.62" height="72" as="geometry" />
        </mxCell>
      </root>
    </mxGraphModel>
  </diagram>
  <diagram name="simple-ms-app" id="DCbOHgzPfG1HnomXrxoq">
    <mxGraphModel dx="2071" dy="1214" grid="0" gridSize="10" guides="1" tooltips="1" connect="0" arrows="0" fold="1" page="0" pageScale="1" pageWidth="1169" pageHeight="827" background="none" math="0" shadow="0">
      <root>
        <mxCell id="Mkz1561AUryzhJ5JRjOw-0" />
        <mxCell id="Mkz1561AUryzhJ5JRjOw-1" parent="Mkz1561AUryzhJ5JRjOw-0" />
        <mxCell id="Mkz1561AUryzhJ5JRjOw-2" value="" style="rounded=0;whiteSpace=wrap;html=1;sketch=0;fillColor=none;" parent="Mkz1561AUryzhJ5JRjOw-1" vertex="1">
          <mxGeometry x="213" y="66" width="938" height="595" as="geometry" />
        </mxCell>
        <mxCell id="Mkz1561AUryzhJ5JRjOw-3" style="edgeStyle=orthogonalEdgeStyle;rounded=0;orthogonalLoop=1;jettySize=auto;html=1;exitX=0.25;exitY=1;exitDx=0;exitDy=0;entryX=0.5;entryY=0;entryDx=0;entryDy=0;strokeColor=default;strokeWidth=2;fontSize=15;endSize=6;dashed=1;" parent="Mkz1561AUryzhJ5JRjOw-1" source="Mkz1561AUryzhJ5JRjOw-5" target="Mkz1561AUryzhJ5JRjOw-9" edge="1">
          <mxGeometry relative="1" as="geometry" />
        </mxCell>
        <mxCell id="Mkz1561AUryzhJ5JRjOw-4" value="Register" style="edgeLabel;html=1;align=center;verticalAlign=middle;resizable=0;points=[];fontSize=15;" parent="Mkz1561AUryzhJ5JRjOw-3" vertex="1" connectable="0">
          <mxGeometry x="-0.2134" y="-1" relative="1" as="geometry">
            <mxPoint as="offset" />
          </mxGeometry>
        </mxCell>
        <mxCell id="Mkz1561AUryzhJ5JRjOw-5" value="" style="rounded=0;whiteSpace=wrap;html=1;sketch=0;fillColor=none;dashed=1;" parent="Mkz1561AUryzhJ5JRjOw-1" vertex="1">
          <mxGeometry x="263" y="91" width="859" height="520" as="geometry" />
        </mxCell>
        <mxCell id="Mkz1561AUryzhJ5JRjOw-6" value="listen" style="edgeStyle=orthogonalEdgeStyle;rounded=0;orthogonalLoop=1;jettySize=auto;html=1;entryX=1;entryY=0.75;entryDx=0;entryDy=0;fontSize=15;endSize=6;strokeWidth=3;fillColor=#fa6800;strokeColor=#C73500;" parent="Mkz1561AUryzhJ5JRjOw-1" edge="1">
          <mxGeometry relative="1" as="geometry">
            <Array as="points">
              <mxPoint x="1046" y="232" />
            </Array>
            <mxPoint x="1045.9999999999995" y="286" as="sourcePoint" />
          </mxGeometry>
        </mxCell>
        <mxCell id="Mkz1561AUryzhJ5JRjOw-9" value="Eureka (Discovery server)" style="shape=image;verticalLabelPosition=bottom;labelBackgroundColor=default;verticalAlign=top;aspect=fixed;imageAspect=0;image=https://pbs.twimg.com/profile_images/1235868806079057921/fTL08u_H_400x400.png;imageBorder=default;" parent="Mkz1561AUryzhJ5JRjOw-1" vertex="1">
          <mxGeometry x="437" y="685" width="83" height="83" as="geometry" />
        </mxCell>
        <mxCell id="Mkz1561AUryzhJ5JRjOw-10" style="edgeStyle=orthogonalEdgeStyle;rounded=0;orthogonalLoop=1;jettySize=auto;html=1;fontSize=15;strokeWidth=1;fillColor=#a0522d;strokeColor=#6D1F00;shape=link;" parent="Mkz1561AUryzhJ5JRjOw-1" source="Mkz1561AUryzhJ5JRjOw-37" edge="1">
          <mxGeometry relative="1" as="geometry">
            <mxPoint x="699" y="161.5000000000001" as="targetPoint" />
          </mxGeometry>
        </mxCell>
        <mxCell id="Mkz1561AUryzhJ5JRjOw-11" style="edgeStyle=orthogonalEdgeStyle;rounded=0;orthogonalLoop=1;jettySize=auto;html=1;fontSize=15;strokeWidth=1;fillColor=#a0522d;strokeColor=#6D1F00;shape=link;" parent="Mkz1561AUryzhJ5JRjOw-1" source="Mkz1561AUryzhJ5JRjOw-16" target="Mkz1561AUryzhJ5JRjOw-18" edge="1">
          <mxGeometry relative="1" as="geometry" />
        </mxCell>
        <mxCell id="Mkz1561AUryzhJ5JRjOw-12" style="edgeStyle=orthogonalEdgeStyle;rounded=0;orthogonalLoop=1;jettySize=auto;html=1;fontSize=15;endSize=6;strokeWidth=2;strokeColor=#001DBC;fillColor=#0050ef;" parent="Mkz1561AUryzhJ5JRjOw-1" edge="1">
          <mxGeometry relative="1" as="geometry">
            <mxPoint x="502.19" y="488" as="sourcePoint" />
            <mxPoint x="502.19" y="203" as="targetPoint" />
          </mxGeometry>
        </mxCell>
        <mxCell id="Mkz1561AUryzhJ5JRjOw-13" value="HTTP" style="edgeLabel;html=1;align=center;verticalAlign=middle;resizable=0;points=[];fontSize=15;" parent="Mkz1561AUryzhJ5JRjOw-12" vertex="1" connectable="0">
          <mxGeometry x="-0.35" y="1" relative="1" as="geometry">
            <mxPoint x="-1" y="-56" as="offset" />
          </mxGeometry>
        </mxCell>
        <mxCell id="PV4jSnhk1A6-MapW2e3p-5" style="edgeStyle=orthogonalEdgeStyle;rounded=0;orthogonalLoop=1;jettySize=auto;html=1;exitX=0.75;exitY=0;exitDx=0;exitDy=0;entryX=0;entryY=0.5;entryDx=0;entryDy=0;" parent="Mkz1561AUryzhJ5JRjOw-1" source="Mkz1561AUryzhJ5JRjOw-16" target="PV4jSnhk1A6-MapW2e3p-3" edge="1">
          <mxGeometry relative="1" as="geometry" />
        </mxCell>
        <mxCell id="Mkz1561AUryzhJ5JRjOw-16" value="School" style="shape=image;verticalLabelPosition=bottom;labelBackgroundColor=default;verticalAlign=top;aspect=fixed;imageAspect=0;image=https://pbs.twimg.com/profile_images/1235868806079057921/fTL08u_H_400x400.png;imageBorder=default;" parent="Mkz1561AUryzhJ5JRjOw-1" vertex="1">
          <mxGeometry x="461" y="488" width="83" height="83" as="geometry" />
        </mxCell>
        <mxCell id="Mkz1561AUryzhJ5JRjOw-18" value="" style="shape=image;verticalLabelPosition=bottom;labelBackgroundColor=default;verticalAlign=top;aspect=fixed;imageAspect=0;image=https://upload.wikimedia.org/wikipedia/commons/thumb/b/ba/Database-postgres.svg/1448px-Database-postgres.svg.png;" parent="Mkz1561AUryzhJ5JRjOw-1" vertex="1">
          <mxGeometry x="699" y="479.6" width="70.63" height="99.8" as="geometry" />
        </mxCell>
        <mxCell id="Mkz1561AUryzhJ5JRjOw-19" value="" style="sketch=0;aspect=fixed;html=1;points=[];align=center;image;fontSize=12;image=img/lib/mscae/Docker.svg;fillColor=none;" parent="Mkz1561AUryzhJ5JRjOw-1" vertex="1">
          <mxGeometry x="739" y="547" width="50" height="41" as="geometry" />
        </mxCell>
        <mxCell id="Mkz1561AUryzhJ5JRjOw-25" style="edgeStyle=orthogonalEdgeStyle;rounded=0;orthogonalLoop=1;jettySize=auto;html=1;entryX=0.5;entryY=1;entryDx=0;entryDy=0;strokeColor=default;strokeWidth=2;fontSize=22;endSize=6;" parent="Mkz1561AUryzhJ5JRjOw-1" source="Mkz1561AUryzhJ5JRjOw-26" target="Mkz1561AUryzhJ5JRjOw-49" edge="1">
          <mxGeometry relative="1" as="geometry" />
        </mxCell>
        <mxCell id="Mkz1561AUryzhJ5JRjOw-26" value="Internet" style="outlineConnect=0;dashed=0;verticalLabelPosition=bottom;verticalAlign=top;align=center;html=1;shape=mxgraph.aws3.internet_3;fillColor=#D2D3D3;gradientColor=none;sketch=0;fontSize=15;" parent="Mkz1561AUryzhJ5JRjOw-1" vertex="1">
          <mxGeometry x="8" y="324" width="79.5" height="54" as="geometry" />
        </mxCell>
        <mxCell id="Mkz1561AUryzhJ5JRjOw-28" value="" style="endArrow=classic;html=1;rounded=0;fontSize=15;endSize=6;entryX=0;entryY=0.75;entryDx=0;entryDy=0;strokeWidth=3;strokeColor=#fcb603;fillColor=#ffcd28;gradientColor=#ffa500;exitX=0;exitY=0.5;exitDx=0;exitDy=0;" parent="Mkz1561AUryzhJ5JRjOw-1" source="Mkz1561AUryzhJ5JRjOw-5" target="Mkz1561AUryzhJ5JRjOw-37" edge="1">
          <mxGeometry width="50" height="50" relative="1" as="geometry">
            <mxPoint x="267" y="350" as="sourcePoint" />
            <mxPoint x="317" y="300" as="targetPoint" />
          </mxGeometry>
        </mxCell>
        <mxCell id="Mkz1561AUryzhJ5JRjOw-29" value="/students" style="edgeLabel;html=1;align=center;verticalAlign=middle;resizable=0;points=[];fontSize=15;" parent="Mkz1561AUryzhJ5JRjOw-28" vertex="1" connectable="0">
          <mxGeometry x="-0.5046" y="1" relative="1" as="geometry">
            <mxPoint as="offset" />
          </mxGeometry>
        </mxCell>
        <mxCell id="Mkz1561AUryzhJ5JRjOw-30" value="" style="endArrow=classic;html=1;rounded=0;fontSize=15;endSize=6;exitX=1;exitY=0.5;exitDx=0;exitDy=0;strokeWidth=3;strokeColor=#fcb603;fillColor=#ffcd28;gradientColor=#ffa500;" parent="Mkz1561AUryzhJ5JRjOw-1" target="Mkz1561AUryzhJ5JRjOw-16" edge="1">
          <mxGeometry width="50" height="50" relative="1" as="geometry">
            <mxPoint x="260.99999999999955" y="353" as="sourcePoint" />
            <mxPoint x="367.32" y="342" as="targetPoint" />
          </mxGeometry>
        </mxCell>
        <mxCell id="Mkz1561AUryzhJ5JRjOw-31" value="/schools" style="edgeLabel;html=1;align=center;verticalAlign=middle;resizable=0;points=[];fontSize=15;" parent="Mkz1561AUryzhJ5JRjOw-30" vertex="1" connectable="0">
          <mxGeometry x="0.2804" y="-3" relative="1" as="geometry">
            <mxPoint x="-82" y="-69" as="offset" />
          </mxGeometry>
        </mxCell>
        <mxCell id="PV4jSnhk1A6-MapW2e3p-4" style="edgeStyle=orthogonalEdgeStyle;rounded=0;orthogonalLoop=1;jettySize=auto;html=1;exitX=0.75;exitY=1;exitDx=0;exitDy=0;entryX=0;entryY=0.25;entryDx=0;entryDy=0;" parent="Mkz1561AUryzhJ5JRjOw-1" source="Mkz1561AUryzhJ5JRjOw-37" target="PV4jSnhk1A6-MapW2e3p-3" edge="1">
          <mxGeometry relative="1" as="geometry" />
        </mxCell>
        <mxCell id="Mkz1561AUryzhJ5JRjOw-37" value="Student" style="shape=image;verticalLabelPosition=bottom;labelBackgroundColor=default;verticalAlign=top;aspect=fixed;imageAspect=0;image=https://pbs.twimg.com/profile_images/1235868806079057921/fTL08u_H_400x400.png;imageBorder=default;" parent="Mkz1561AUryzhJ5JRjOw-1" vertex="1">
          <mxGeometry x="461" y="120" width="83" height="83" as="geometry" />
        </mxCell>
        <mxCell id="Mkz1561AUryzhJ5JRjOw-41" style="edgeStyle=orthogonalEdgeStyle;rounded=0;orthogonalLoop=1;jettySize=auto;html=1;entryX=0.77;entryY=0.999;entryDx=0;entryDy=0;entryPerimeter=0;dashed=1;strokeColor=default;strokeWidth=2;fontSize=15;endSize=6;" parent="Mkz1561AUryzhJ5JRjOw-1" source="Mkz1561AUryzhJ5JRjOw-44" target="Mkz1561AUryzhJ5JRjOw-5" edge="1">
          <mxGeometry relative="1" as="geometry" />
        </mxCell>
        <mxCell id="Mkz1561AUryzhJ5JRjOw-42" value="Pull configuration" style="edgeLabel;html=1;align=center;verticalAlign=middle;resizable=0;points=[];fontSize=15;" parent="Mkz1561AUryzhJ5JRjOw-41" vertex="1" connectable="0">
          <mxGeometry x="0.0577" y="1" relative="1" as="geometry">
            <mxPoint as="offset" />
          </mxGeometry>
        </mxCell>
        <mxCell id="Mkz1561AUryzhJ5JRjOw-43" value="" style="group" parent="Mkz1561AUryzhJ5JRjOw-1" vertex="1" connectable="0">
          <mxGeometry x="882" y="685" width="164.48000000000002" height="83" as="geometry" />
        </mxCell>
        <mxCell id="Mkz1561AUryzhJ5JRjOw-44" value="Config server" style="shape=image;verticalLabelPosition=bottom;labelBackgroundColor=default;verticalAlign=top;aspect=fixed;imageAspect=0;image=https://pbs.twimg.com/profile_images/1235868806079057921/fTL08u_H_400x400.png;imageBorder=default;" parent="Mkz1561AUryzhJ5JRjOw-43" vertex="1">
          <mxGeometry width="83" height="83" as="geometry" />
        </mxCell>
        <mxCell id="Mkz1561AUryzhJ5JRjOw-45" value="" style="shape=image;verticalLabelPosition=bottom;labelBackgroundColor=default;verticalAlign=top;aspect=fixed;imageAspect=0;image=https://cdn-icons-png.flaticon.com/512/25/25231.png;" parent="Mkz1561AUryzhJ5JRjOw-43" vertex="1">
          <mxGeometry x="90" y="27.129999999999995" width="29" height="29" as="geometry" />
        </mxCell>
        <mxCell id="Mkz1561AUryzhJ5JRjOw-46" value="" style="sketch=0;aspect=fixed;pointerEvents=1;shadow=0;dashed=0;html=1;strokeColor=none;labelPosition=center;verticalLabelPosition=bottom;verticalAlign=top;align=center;fillColor=#00188D;shape=mxgraph.azure.code_file" parent="Mkz1561AUryzhJ5JRjOw-43" vertex="1">
          <mxGeometry x="133.22000000000003" y="24.879999999999995" width="31.26" height="33.25" as="geometry" />
        </mxCell>
        <mxCell id="Mkz1561AUryzhJ5JRjOw-47" style="edgeStyle=orthogonalEdgeStyle;rounded=0;orthogonalLoop=1;jettySize=auto;html=1;dashed=1;strokeColor=default;strokeWidth=2;fontSize=15;endSize=6;" parent="Mkz1561AUryzhJ5JRjOw-1" source="Mkz1561AUryzhJ5JRjOw-44" target="Mkz1561AUryzhJ5JRjOw-9" edge="1">
          <mxGeometry relative="1" as="geometry" />
        </mxCell>
        <mxCell id="Mkz1561AUryzhJ5JRjOw-48" value="Pull configuration" style="edgeLabel;html=1;align=center;verticalAlign=middle;resizable=0;points=[];fontSize=22;" parent="Mkz1561AUryzhJ5JRjOw-47" vertex="1" connectable="0">
          <mxGeometry x="0.2079" y="1" relative="1" as="geometry">
            <mxPoint x="32" y="-1" as="offset" />
          </mxGeometry>
        </mxCell>
        <mxCell id="Mkz1561AUryzhJ5JRjOw-49" value="API Gateway" style="rounded=0;labelBackgroundColor=none;labelBorderColor=none;sketch=0;strokeColor=#006EAF;fontSize=22;fillColor=#1ba1e2;html=1;whiteSpace=wrap;rotation=90;fontColor=#ffffff;fontStyle=1" parent="Mkz1561AUryzhJ5JRjOw-1" vertex="1">
          <mxGeometry x="-48.25" y="322.25" width="522" height="57.5" as="geometry" />
        </mxCell>
        <mxCell id="Mkz1561AUryzhJ5JRjOw-50" value="" style="sketch=0;outlineConnect=0;dashed=0;verticalLabelPosition=bottom;verticalAlign=top;align=center;html=1;fontSize=12;fontStyle=0;aspect=fixed;pointerEvents=1;shape=mxgraph.aws4.gateway_load_balancer;labelBackgroundColor=none;labelBorderColor=none;" parent="Mkz1561AUryzhJ5JRjOw-1" vertex="1">
          <mxGeometry x="189.75" y="228" width="46" height="46" as="geometry" />
        </mxCell>
        <mxCell id="WYsTmNUXfwcSGCrvJzmU-0" value="" style="shape=image;verticalLabelPosition=bottom;labelBackgroundColor=default;verticalAlign=top;aspect=fixed;imageAspect=0;image=https://upload.wikimedia.org/wikipedia/commons/thumb/b/ba/Database-postgres.svg/1448px-Database-postgres.svg.png;" parent="Mkz1561AUryzhJ5JRjOw-1" vertex="1">
          <mxGeometry x="695" y="107.30000000000001" width="70.63" height="99.8" as="geometry" />
        </mxCell>
        <mxCell id="WYsTmNUXfwcSGCrvJzmU-1" value="" style="sketch=0;aspect=fixed;html=1;points=[];align=center;image;fontSize=12;image=img/lib/mscae/Docker.svg;fillColor=none;" parent="Mkz1561AUryzhJ5JRjOw-1" vertex="1">
          <mxGeometry x="735" y="174.7" width="50" height="41" as="geometry" />
        </mxCell>
        <mxCell id="PV4jSnhk1A6-MapW2e3p-3" value="" style="shape=image;verticalLabelPosition=bottom;labelBackgroundColor=default;verticalAlign=top;aspect=fixed;imageAspect=0;image=https://avatars.githubusercontent.com/u/11860887?s=280&amp;v=4;" parent="Mkz1561AUryzhJ5JRjOw-1" vertex="1">
          <mxGeometry x="873" y="299" width="104" height="104" as="geometry" />
        </mxCell>
      </root>
    </mxGraphModel>
  </diagram>
  <diagram name="Page-3" id="8mW6or0X2M0Jqt0EEQc3">
    <mxGraphModel dx="2471" dy="1214" grid="0" gridSize="10" guides="1" tooltips="1" connect="1" arrows="1" fold="1" page="0" pageScale="1" pageWidth="1169" pageHeight="827" math="0" shadow="0">
      <root>
        <mxCell id="0" />
        <mxCell id="1" parent="0" />
        <mxCell id="WWQ-MBUYeXolELqLjDh3-1" value="Student" style="swimlane;fontStyle=0;childLayout=stackLayout;horizontal=1;startSize=26;fillColor=none;horizontalStack=0;resizeParent=1;resizeParentMax=0;resizeLast=0;collapsible=1;marginBottom=0;whiteSpace=wrap;html=1;" parent="1" vertex="1">
          <mxGeometry x="-137" y="28" width="140" height="130" as="geometry" />
        </mxCell>
        <mxCell id="WWQ-MBUYeXolELqLjDh3-2" value="id" style="text;strokeColor=none;fillColor=none;align=left;verticalAlign=top;spacingLeft=4;spacingRight=4;overflow=hidden;rotatable=0;points=[[0,0.5],[1,0.5]];portConstraint=eastwest;whiteSpace=wrap;html=1;" parent="WWQ-MBUYeXolELqLjDh3-1" vertex="1">
          <mxGeometry y="26" width="140" height="26" as="geometry" />
        </mxCell>
        <mxCell id="WWQ-MBUYeXolELqLjDh3-3" value="firstname" style="text;strokeColor=none;fillColor=none;align=left;verticalAlign=top;spacingLeft=4;spacingRight=4;overflow=hidden;rotatable=0;points=[[0,0.5],[1,0.5]];portConstraint=eastwest;whiteSpace=wrap;html=1;" parent="WWQ-MBUYeXolELqLjDh3-1" vertex="1">
          <mxGeometry y="52" width="140" height="26" as="geometry" />
        </mxCell>
        <mxCell id="WWQ-MBUYeXolELqLjDh3-4" value="lastname" style="text;strokeColor=none;fillColor=none;align=left;verticalAlign=top;spacingLeft=4;spacingRight=4;overflow=hidden;rotatable=0;points=[[0,0.5],[1,0.5]];portConstraint=eastwest;whiteSpace=wrap;html=1;" parent="WWQ-MBUYeXolELqLjDh3-1" vertex="1">
          <mxGeometry y="78" width="140" height="26" as="geometry" />
        </mxCell>
        <mxCell id="WWQ-MBUYeXolELqLjDh3-9" value="email" style="text;strokeColor=none;fillColor=none;align=left;verticalAlign=top;spacingLeft=4;spacingRight=4;overflow=hidden;rotatable=0;points=[[0,0.5],[1,0.5]];portConstraint=eastwest;whiteSpace=wrap;html=1;" parent="WWQ-MBUYeXolELqLjDh3-1" vertex="1">
          <mxGeometry y="104" width="140" height="26" as="geometry" />
        </mxCell>
        <mxCell id="WWQ-MBUYeXolELqLjDh3-5" value="School" style="swimlane;fontStyle=0;childLayout=stackLayout;horizontal=1;startSize=26;fillColor=none;horizontalStack=0;resizeParent=1;resizeParentMax=0;resizeLast=0;collapsible=1;marginBottom=0;whiteSpace=wrap;html=1;" parent="1" vertex="1">
          <mxGeometry x="102" y="134" width="140" height="104" as="geometry" />
        </mxCell>
        <mxCell id="WWQ-MBUYeXolELqLjDh3-6" value="id" style="text;strokeColor=none;fillColor=none;align=left;verticalAlign=top;spacingLeft=4;spacingRight=4;overflow=hidden;rotatable=0;points=[[0,0.5],[1,0.5]];portConstraint=eastwest;whiteSpace=wrap;html=1;" parent="WWQ-MBUYeXolELqLjDh3-5" vertex="1">
          <mxGeometry y="26" width="140" height="26" as="geometry" />
        </mxCell>
        <mxCell id="WWQ-MBUYeXolELqLjDh3-7" value="name" style="text;strokeColor=none;fillColor=none;align=left;verticalAlign=top;spacingLeft=4;spacingRight=4;overflow=hidden;rotatable=0;points=[[0,0.5],[1,0.5]];portConstraint=eastwest;whiteSpace=wrap;html=1;" parent="WWQ-MBUYeXolELqLjDh3-5" vertex="1">
          <mxGeometry y="52" width="140" height="26" as="geometry" />
        </mxCell>
        <mxCell id="WWQ-MBUYeXolELqLjDh3-8" value="email" style="text;strokeColor=none;fillColor=none;align=left;verticalAlign=top;spacingLeft=4;spacingRight=4;overflow=hidden;rotatable=0;points=[[0,0.5],[1,0.5]];portConstraint=eastwest;whiteSpace=wrap;html=1;" parent="WWQ-MBUYeXolELqLjDh3-5" vertex="1">
          <mxGeometry y="78" width="140" height="26" as="geometry" />
        </mxCell>
        <mxCell id="WWQ-MBUYeXolELqLjDh3-10" value="" style="edgeStyle=entityRelationEdgeStyle;fontSize=12;html=1;endArrow=ERoneToMany;rounded=0;entryX=1;entryY=0.5;entryDx=0;entryDy=0;exitX=0;exitY=0.5;exitDx=0;exitDy=0;" parent="1" source="WWQ-MBUYeXolELqLjDh3-7" target="WWQ-MBUYeXolELqLjDh3-1" edge="1">
          <mxGeometry width="100" height="100" relative="1" as="geometry">
            <mxPoint x="135" y="233" as="sourcePoint" />
            <mxPoint x="235" y="133" as="targetPoint" />
          </mxGeometry>
        </mxCell>
      </root>
    </mxGraphModel>
  </diagram>
</mxfile>
